<svg width="67" height="66" viewBox="0 0 67 66" fill="none" xmlns="http://www.w3.org/2000/svg">
<path fill-rule="evenodd" clip-rule="evenodd" d="M33.4969 -0.000561601C14.9983 -0.000561601 0 14.9978 0 33.5005C0 48.3014 9.59787 60.8565 22.9098 65.2884C24.5859 65.5948 25.1967 64.5604 25.1967 63.672C25.1967 62.8781 25.1679 60.7702 25.1515 57.9753C15.8333 59.999 13.8672 53.4839 13.8672 53.4839C12.3433 49.6155 10.147 48.5852 10.147 48.5852C7.10534 46.506 10.3773 46.5472 10.3773 46.5472C13.7397 46.7857 15.5084 50.0001 15.5084 50.0001C18.4965 55.1188 23.3499 53.6402 25.2584 52.7846C25.5628 50.6191 26.4265 49.1425 27.3849 48.3055C19.9464 47.4603 12.1254 44.5852 12.1254 31.7483C12.1254 28.0918 13.4313 25.1016 15.5742 22.7592C15.2287 21.9119 14.0791 18.5062 15.9012 13.8934C15.9012 13.8934 18.7145 12.9927 25.1145 17.3278C27.7859 16.5854 30.6527 16.2132 33.501 16.2009C36.3452 16.2132 39.212 16.5854 41.8876 17.3278C48.2834 12.9927 51.0906 13.8934 51.0906 13.8934C52.9189 18.5062 51.7693 21.9119 51.4238 22.7592C53.5708 25.1016 54.8685 28.0918 54.8685 31.7483C54.8685 44.6181 47.0351 47.45 39.5719 48.2788C40.775 49.3132 41.8465 51.3574 41.8465 54.4833C41.8465 58.9604 41.8053 62.5738 41.8053 63.672C41.8053 64.5686 42.4079 65.6113 44.1087 65.2843C57.4104 60.8442 67 48.2973 67 33.5005C67 14.9978 51.9996 -0.000561601 33.4969 -0.000561601Z" fill="#143649"/>
</svg>
