<svg width="158" height="28" viewBox="0 0 158 28" fill="none" xmlns="http://www.w3.org/2000/svg">
    <g clip-path="url(#clip0_32:2)">
        <path d="M157.25 0H0V28H157.25V0Z" fill="white"/>
        <path d="M52.167 13.8721C52.167 14.5329 52.0221 15.1318 51.7324 15.6689C51.446 16.2061 51.0635 16.6227 50.585 16.9189C50.2529 17.124 49.8818 17.2721 49.4717 17.3633C49.0648 17.4544 48.5277 17.5 47.8604 17.5H46.0244V10.2295H47.8408C48.5505 10.2295 49.1136 10.2816 49.5303 10.3857C49.9502 10.4867 50.305 10.6266 50.5947 10.8057C51.0895 11.1149 51.4753 11.5267 51.752 12.041C52.0286 12.5553 52.167 13.1657 52.167 13.8721ZM51.1562 13.8574C51.1562 13.2878 51.057 12.8076 50.8584 12.417C50.6598 12.0264 50.3636 11.7188 49.9697 11.4941C49.6833 11.3314 49.3789 11.2191 49.0566 11.1572C48.7344 11.0921 48.3486 11.0596 47.8994 11.0596H46.9912V16.6699H47.8994C48.3649 16.6699 48.7702 16.6357 49.1152 16.5674C49.4635 16.499 49.7826 16.3721 50.0723 16.1865C50.4336 15.9554 50.7038 15.651 50.8828 15.2734C51.0651 14.8958 51.1562 14.4238 51.1562 13.8574ZM59.1494 11.0645C59.4456 11.39 59.6719 11.7887 59.8281 12.2607C59.9876 12.7327 60.0674 13.2682 60.0674 13.8672C60.0674 14.4661 59.986 15.0033 59.8232 15.4785C59.6637 15.9505 59.4391 16.3444 59.1494 16.6602C58.8499 16.9889 58.4951 17.2363 58.085 17.4023C57.6781 17.5684 57.2126 17.6514 56.6885 17.6514C56.1774 17.6514 55.7119 17.5667 55.292 17.3975C54.8753 17.2282 54.5205 16.9824 54.2275 16.6602C53.9346 16.3379 53.7083 15.9424 53.5488 15.4736C53.3926 15.0049 53.3145 14.4694 53.3145 13.8672C53.3145 13.2747 53.3926 12.7441 53.5488 12.2754C53.7051 11.8034 53.9329 11.3997 54.2324 11.0645C54.5189 10.7454 54.8737 10.5013 55.2969 10.332C55.7233 10.1628 56.1872 10.0781 56.6885 10.0781C57.2093 10.0781 57.6764 10.1644 58.0898 10.3369C58.5065 10.5062 58.8597 10.7487 59.1494 11.0645ZM59.0615 13.8672C59.0615 12.9232 58.8499 12.1956 58.4268 11.6846C58.0036 11.1702 57.4258 10.9131 56.6934 10.9131C55.9544 10.9131 55.3734 11.1702 54.9502 11.6846C54.5303 12.1956 54.3203 12.9232 54.3203 13.8672C54.3203 14.821 54.5352 15.5518 54.9648 16.0596C55.3945 16.5641 55.9707 16.8164 56.6934 16.8164C57.416 16.8164 57.9906 16.5641 58.417 16.0596C58.8467 15.5518 59.0615 14.821 59.0615 13.8672ZM67.1475 17.5H65.9512L62.5039 10.9961V17.5H61.6006V10.2295H63.0996L66.2441 16.167V10.2295H67.1475V17.5ZM74.8135 17.5H73.7832L73.0703 15.4736H69.9258L69.2129 17.5H68.2314L70.8779 10.2295H72.167L74.8135 17.5ZM72.7725 14.6436L71.498 11.0742L70.2188 14.6436H72.7725ZM80.5166 11.0889H77.9189V17.5H76.9521V11.0889H74.3545V10.2295H80.5166V11.0889ZM86.2832 17.5H81.4932V10.2295H86.2832V11.0889H82.46V13.0811H86.2832V13.9404H82.46V16.6406H86.2832V17.5ZM96.5225 11.0889H93.9248V17.5H92.958V11.0889H90.3604V10.2295H96.5225V11.0889ZM102.675 11.0645C102.971 11.39 103.197 11.7887 103.354 12.2607C103.513 12.7327 103.593 13.2682 103.593 13.8672C103.593 14.4661 103.511 15.0033 103.349 15.4785C103.189 15.9505 102.965 16.3444 102.675 16.6602C102.375 16.9889 102.021 17.2363 101.61 17.4023C101.203 17.5684 100.738 17.6514 100.214 17.6514C99.7028 17.6514 99.2373 17.5667 98.8174 17.3975C98.4007 17.2282 98.0459 16.9824 97.7529 16.6602C97.46 16.3379 97.2337 15.9424 97.0742 15.4736C96.918 15.0049 96.8398 14.4694 96.8398 13.8672C96.8398 13.2747 96.918 12.7441 97.0742 12.2754C97.2305 11.8034 97.4583 11.3997 97.7578 11.0645C98.0443 10.7454 98.3991 10.5013 98.8223 10.332C99.2487 10.1628 99.7126 10.0781 100.214 10.0781C100.735 10.0781 101.202 10.1644 101.615 10.3369C102.032 10.5062 102.385 10.7487 102.675 11.0645ZM102.587 13.8672C102.587 12.9232 102.375 12.1956 101.952 11.6846C101.529 11.1702 100.951 10.9131 100.219 10.9131C99.4798 10.9131 98.8988 11.1702 98.4756 11.6846C98.0557 12.1956 97.8457 12.9232 97.8457 13.8672C97.8457 14.821 98.0605 15.5518 98.4902 16.0596C98.9199 16.5641 99.4961 16.8164 100.219 16.8164C100.941 16.8164 101.516 16.5641 101.942 16.0596C102.372 15.5518 102.587 14.821 102.587 13.8672ZM117.104 10.2295L115.214 17.5H114.125L112.597 11.4648L111.103 17.5H110.038L108.114 10.2295H109.105L110.634 16.2744L112.138 10.2295H113.119L114.638 16.333L116.156 10.2295H117.104ZM126.996 10.2295L125.106 17.5H124.018L122.489 11.4648L120.995 17.5H119.931L118.007 10.2295H118.998L120.526 16.2744L122.03 10.2295H123.012L124.53 16.333L126.049 10.2295H126.996ZM133.07 11.0889H129.394V13.1396H132.553V13.999H129.394V17.5H128.427V10.2295H133.07V11.0889Z" fill="#333333"/>
        <path d="M18.3257 1.00062C17.8437 1.01169 17.3359 1.17021 16.9701 1.48364C16.3197 2.04085 15.6703 2.61978 15.6927 3.37758C15.7152 4.13538 16.1404 4.5597 16.1404 4.5597C16.1404 4.5597 16.4319 4.7817 16.1404 5.00459C15.8488 5.22747 12.3959 7.41238 12.5754 11.9146C12.5754 11.9146 12.6651 13.0863 12.5306 14.3345C12.4339 15.2311 12.7511 16.3183 12.9382 16.8624C12.943 16.8675 13.0301 17.0913 12.8327 16.9609C11.8968 16.3795 11.1325 15.5057 10.4923 14.4203C9.9049 13.3599 9.56988 12.1347 9.56988 10.831C9.56988 8.06206 11.0825 5.65025 13.3107 4.40876C10.2536 5.24662 8 8.09218 8 11.4713C8 11.7296 8.01269 11.9857 8.03837 12.2372C8.06322 12.8198 8.12789 13.7496 8.29255 14.1216C8.53923 14.6788 8.51637 15.8816 8.51637 16.0822C8.51637 16.2828 8.58375 22.8795 12.5082 22.8572C12.5082 22.8572 14.3787 22.9034 14.3914 22.1454C14.4026 21.4767 14.2106 21.4065 14.0333 21.0189C13.8651 20.6511 13.7422 20.6288 13.8319 19.4475C13.8319 19.4475 13.8365 19.2084 13.9262 19.2028C14.0159 19.1972 15.1096 22.4344 16.5224 24.1283C17.9352 25.8222 19.3483 26 20.4248 26C20.4248 26 22.4423 26.0004 22.4423 24.9974C22.4423 23.9944 21.523 24.3952 21.523 21.2079C21.523 18.0207 23.0702 18.178 23.2496 18.9581C23.429 19.7382 23.5859 20.3617 23.272 22.4568C22.958 24.5519 23.8108 24.7972 24.5956 24.7972C25.3805 24.7972 29.5069 24.93 30.2245 13.2064C30.2245 13.2064 30.3137 11.3125 29.6858 9.68542C29.6858 9.68542 29.955 12.8058 28.004 14.4775C26.053 16.1491 24.9314 15.9043 24.9314 15.9043C24.9314 15.9043 23.9905 15.8366 23.6093 16.3047C23.228 16.7727 23.2943 17.1075 22.487 16.8624C21.6797 16.6172 21.6764 16.4173 20.9363 16.5065C20.1963 16.5956 19.7507 16.684 19.4592 16.0822C19.1676 15.4804 18.8417 15.0926 18.2362 14.9811C17.6307 14.8697 14.9702 13.6117 15.0421 10.0652C15.1094 6.76649 16.612 5.62902 16.612 5.62902C16.612 5.62902 16.8593 5.36186 17.1059 5.47331C17.3526 5.58475 17.7557 5.60761 18.2266 5.18413C18.6975 4.76065 19.0115 4.42522 19.8636 4.13547C19.8636 4.13547 20.4472 4.04605 20.4248 3.46656C20.4023 2.88706 19.9304 1.61785 19.3249 1.23895C19.06 1.07318 18.7006 0.992011 18.3257 1.00062ZM20.3608 16.9529C20.4963 16.948 20.6916 17.0371 20.898 17.115C21.1981 17.2284 21.8844 17.1748 22.1529 17.1563C22.4214 17.1378 22.6013 17.251 22.3863 17.5043C22.09 17.8534 21.7355 17.8405 21.288 17.8713C20.8406 17.9022 20.3608 17.4661 20.3608 17.4661C20.3353 17.4232 20.1175 17.1926 20.2185 17.0292C20.2501 16.9782 20.2992 16.9552 20.3608 16.9529Z" fill="black"/>
        <path d="M18.0696 9.84164C18.5879 9.20968 18.8769 9.12842 19.3254 9.12842C19.7739 9.12842 20.3962 9.41426 20.5812 10.1091C20.7831 10.8669 20.8855 10.983 20.1587 11.8288C19.6372 12.4356 18.6975 13.7644 17.7556 12.9174C16.8138 12.0705 17.1634 10.9465 18.0696 9.84164Z" fill="black"/>
        <path d="M26.4928 11.0218C26.1891 10.2644 25.938 10.1007 25.5101 9.96697C25.0823 9.83325 24.4024 9.92039 24.0161 10.5281C23.5949 11.1908 23.4491 11.2534 23.8872 12.2769C24.2015 13.0113 24.7098 14.5766 25.8639 14.0495C27.0181 13.5224 27.0238 12.3459 26.4928 11.0218Z" fill="black"/>
        <path d="M21.5248 15.9958C21.7647 15.6224 22.324 15.4956 22.6483 15.4857C23.0725 15.4727 23.0665 15.1089 23.0665 15.1089C23.0665 15.1089 23.0964 14.7376 21.5643 14.5896C20.0338 14.4417 19.9919 14.8342 19.9919 14.8342C19.9919 14.8342 19.9197 15.1908 20.3346 15.28C20.6506 15.3479 21.1742 15.5774 21.3443 15.9848C21.3779 16.0835 21.4727 16.0855 21.5248 15.9958Z" fill="black"/>
        <path d="M28.7522 6.85336C28.4946 6.93695 28.091 6.91467 27.6701 6.44195C27.2493 5.96923 26.9745 5.6024 26.1599 5.22062C26.1599 5.22062 25.5904 5.06782 25.6772 4.49436C25.7641 3.9209 26.3737 2.71013 27.0177 2.40022C27.6617 2.09032 28.7463 2.27774 29.3306 2.90312C29.9148 3.52849 30.4966 4.17602 30.3898 4.92669C30.2831 5.67736 29.8124 6.05132 29.8124 6.05132L29.8206 6.05259C29.5964 6.34234 28.7522 6.85336 28.7522 6.85336Z" fill="black"/>
        <path d="M13.2928 24.4627C13.2928 24.6814 13.2054 24.8912 13.0498 25.0459C12.8942 25.2005 12.6831 25.2874 12.463 25.2874C12.243 25.2874 12.0319 25.2005 11.8763 25.0459C11.7207 24.8912 11.6333 24.6814 11.6333 24.4627C11.6333 24.244 11.7207 24.0343 11.8763 23.8796C12.0319 23.7249 12.243 23.6381 12.463 23.6381C12.6831 23.6381 12.8942 23.7249 13.0498 23.8796C13.2054 24.0343 13.2928 24.244 13.2928 24.4627V24.4627Z" stroke="#6D6D6D" stroke-width="0.2" stroke-linecap="round" stroke-linejoin="round"/>
        <path d="M12.6843 24.5615L12.8564 24.6157C12.83 24.711 12.7861 24.7818 12.7248 24.8281C12.6634 24.8744 12.5856 24.8975 12.4913 24.8975C12.3746 24.8975 12.2787 24.8579 12.2035 24.7787C12.1284 24.6994 12.0908 24.5911 12.0908 24.4536C12.0908 24.3083 12.1286 24.1954 12.2041 24.1149C12.2797 24.0345 12.379 23.9943 12.5021 23.9943C12.6096 23.9943 12.6969 24.0258 12.7641 24.089C12.804 24.1263 12.834 24.18 12.854 24.2499L12.6783 24.2916C12.6679 24.2463 12.6463 24.2105 12.6133 24.1843C12.5803 24.1581 12.5402 24.145 12.4931 24.145C12.4279 24.145 12.3751 24.1682 12.3345 24.2147C12.2939 24.2612 12.2737 24.3365 12.2737 24.4405C12.2737 24.551 12.2936 24.6296 12.3336 24.6765C12.3736 24.7234 12.4255 24.7468 12.4895 24.7468C12.5366 24.7468 12.5772 24.7319 12.6112 24.7021C12.6452 24.6723 12.6695 24.6254 12.6843 24.5615Z" fill="#6D6D6D"/>
    </g>
    <defs>
        <clipPath id="clip0_32:2">
            <rect width="157.25" height="28" fill="white"/>
        </clipPath>
    </defs>
</svg>
