<svg width="1584" height="396" viewBox="0 0 1584 396" fill="none" xmlns="http://www.w3.org/2000/svg">
    <g clip-path="url(#clip0_27:6)">
        <rect width="1584" height="396" fill="white"/>
        <path fill-rule="evenodd" clip-rule="evenodd" d="M1428.06 -129.16C1486.59 -117.523 1519.79 -59.5584 1563.79 -19.2235C1601.63 15.4736 1640.02 46.2803 1667.02 89.9478C1702.06 146.616 1757.03 204.736 1742.46 269.749C1727.86 334.903 1653.91 365.114 1597.39 400.66C1544.73 433.775 1490.18 470.509 1428.06 467.479C1367.26 464.513 1312.2 428.872 1270.31 384.707C1233.12 345.495 1227.75 289.497 1210.64 238.236C1193.34 186.426 1163.73 137.966 1169.81 83.6827C1176.75 21.5937 1198.29 -42.5635 1246.5 -82.2989C1295.94 -123.048 1365.21 -141.653 1428.06 -129.16Z" fill="#3A5C3C"/>
        <g clip-path="url(#clip1_27:6)">
            <path d="M1295.13 310.532L1426.06 83.8384L1556.98 310.532H1295.13Z" stroke="#DFDEE0" stroke-width="5"/>
            <path d="M1376.96 310.532L1426.06 225.522L1475.15 310.532H1376.96Z" stroke="#DFDEE0" stroke-width="5"/>
            <path d="M1428.05 87.2998L1406.63 50.1471" stroke="#DFDEE0" stroke-width="5"/>
            <path d="M1445.48 50.1469L1424.06 87.3009" stroke="#DFDEE0" stroke-width="5"/>
            <path d="M1414.08 179.419V182.548H1438.61V179.419H1427.86V174.575H1437.35V171.547H1427.86V167.208H1424.28V171.547H1415.34V174.575H1424.28V179.419H1414.08ZM1432.5 189.763V196.929H1419.99V189.763H1432.5ZM1436.03 199.906V186.786H1416.55V202.732H1419.99V199.906H1436.03ZM1444.97 162.666H1408.33V178.864C1408.33 186.635 1407.82 196.929 1402.52 204.246C1403.38 204.649 1404.9 205.911 1405.5 206.668C1411.2 198.846 1412.01 187.19 1412.01 178.864V166.198H1441.23V201.571C1441.23 202.479 1440.93 202.782 1439.97 202.782C1439.11 202.833 1435.98 202.883 1432.75 202.782C1433.26 203.741 1433.86 205.305 1434.02 206.314C1438.51 206.314 1441.18 206.264 1442.75 205.658C1444.31 205.002 1444.97 203.993 1444.97 201.571V162.666Z" fill="#DFDEE0"/>
        </g>
        <path fill-rule="evenodd" clip-rule="evenodd" d="M906.419 -13.9796C973.699 35.2057 1052.03 78.0716 1081.12 156.222C1111.65 238.211 1116.11 340.795 1065 412.001C1015.42 481.094 908.829 463.323 833.065 501.882C768.238 534.874 727.16 605.199 656.015 620.148C570.892 638.033 458.152 659.462 403.189 592.204C345.771 521.942 436.601 415.043 416.107 326.575C396.397 241.492 264.434 187.893 290.173 104.329C315.228 22.9835 441.623 40.8313 516.556 0.455505C583.574 -35.6559 628.648 -116.189 704.647 -119.003C782.394 -121.881 843.68 -59.8456 906.419 -13.9796Z" fill="#8AA175"/>
        <path fill-rule="evenodd" clip-rule="evenodd" d="M75.8512 645.05C26.9735 679.164 -32.866 698.88 -92.0959 692.2C-147.441 685.958 -184.544 637.718 -232.978 610.219C-288.594 578.641 -360.384 572.034 -396.59 519.314C-437.438 459.833 -455.056 382.202 -437.659 312.174C-419.862 240.543 -364.085 184.799 -303.139 143.167C-244.327 102.992 -173.238 70.1653 -103.33 83.7936C-37.5423 96.6185 -6.8873 169.792 45.8218 211.195C94.1812 249.181 166.033 260.262 192.184 315.919C219.108 373.221 203.055 441.232 181.956 500.926C161.577 558.583 125.998 610.05 75.8512 645.05Z" fill="#3A5C3C"/>
        <path fill-rule="evenodd" clip-rule="evenodd" d="M708 -11.068C723.288 -6.4816 738.576 -9.53921 750.806 -15.6544C753.864 25.6233 752.335 65.3722 755.393 106.65C755.393 109.707 755.393 115.823 756.922 120.409C758.451 124.995 758.451 123.467 753.864 124.995C743.162 128.053 727.874 131.111 714.115 132.64C712.586 86.7754 709.529 34.7961 708 -11.068Z" fill="#3A5C3C"/>
        <path fill-rule="evenodd" clip-rule="evenodd" d="M715.644 135.697C729.403 134.168 743.163 132.64 758.451 128.053C763.037 176.975 775.267 235.069 779.854 256.473C782.911 265.645 781.383 265.645 773.739 267.174C761.508 268.703 749.278 271.761 737.047 268.703C729.403 224.368 721.759 180.032 715.644 135.697Z" fill="#3A5C3C"/>
        <path fill-rule="evenodd" clip-rule="evenodd" d="M737.048 273.289C753.864 276.347 766.095 271.761 779.854 271.761C787.498 262.588 795.142 248.829 802.786 232.012C772.21 189.205 792.085 108.179 796.671 57.7282C796.671 57.7282 825.718 157.1 805.844 227.425C819.603 198.378 828.776 163.216 828.776 138.755C801.257 92.8907 819.603 16.4505 824.189 -34C824.189 -34 854.765 68.4298 831.833 140.284C831.833 161.687 825.718 187.676 816.545 213.666C842.535 170.86 918.975 157.1 964.839 143.341C964.839 143.341 885.342 210.609 815.017 218.253C805.844 242.713 790.556 268.703 782.912 282.462C789.027 314.567 801.257 404.767 795.142 407.824C781.383 413.939 767.624 413.939 752.336 412.411C749.278 360.431 732.461 280.933 737.048 273.289Z" fill="#3A5C3C"/>
        <path d="M373.757 188.608V178.416H429.456L385.313 273.736H427.231V284H369.02L413.45 188.608H373.757ZM446.826 175.76H456.875V219.903C460.942 214.543 465.417 210.548 470.297 207.916C475.178 205.236 480.466 203.896 486.16 203.896C491.998 203.896 497.166 205.38 501.664 208.347C506.21 211.313 509.56 215.309 511.713 220.333C513.866 225.31 514.943 233.134 514.943 243.805V284H504.894V246.748C504.894 237.751 504.535 231.746 503.817 228.731C502.573 223.563 500.3 219.688 496.999 217.104C493.745 214.472 489.462 213.156 484.15 213.156C478.073 213.156 472.618 215.166 467.785 219.185C463 223.205 459.842 228.181 458.311 234.115C457.354 237.943 456.875 245.025 456.875 255.361V284H446.826V175.76ZM573.513 203.896C585.524 203.896 595.477 208.251 603.373 216.96C610.55 224.903 614.139 234.306 614.139 245.168C614.139 256.079 610.335 265.625 602.727 273.808C595.166 281.942 585.428 286.01 573.513 286.01C561.55 286.01 551.765 281.942 544.156 273.808C536.596 265.625 532.815 256.079 532.815 245.168C532.815 234.354 536.404 224.975 543.582 217.032C551.478 208.275 561.455 203.896 573.513 203.896ZM573.513 213.73C565.187 213.73 558.033 216.816 552.052 222.989C546.07 229.162 543.08 236.627 543.08 245.384C543.08 251.03 544.443 256.294 547.171 261.175C549.898 266.056 553.583 269.836 558.225 272.516C562.866 275.147 567.962 276.463 573.513 276.463C579.064 276.463 584.16 275.147 588.802 272.516C593.443 269.836 597.128 266.056 599.855 261.175C602.583 256.294 603.947 251.03 603.947 245.384C603.947 236.627 600.932 229.162 594.903 222.989C588.921 216.816 581.792 213.73 573.513 213.73ZM631.581 205.906H641.702V242.369C641.702 251.27 642.18 257.395 643.137 260.744C644.573 265.529 647.3 269.31 651.32 272.085C655.387 274.86 660.22 276.248 665.819 276.248C671.417 276.248 676.155 274.908 680.031 272.229C683.955 269.501 686.658 265.936 688.142 261.534C689.146 258.519 689.649 252.131 689.649 242.369V205.906H699.913V244.235C699.913 255.002 698.645 263.113 696.109 268.568C693.621 274.023 689.84 278.306 684.768 281.416C679.744 284.479 673.427 286.01 665.819 286.01C658.21 286.01 651.846 284.479 646.726 281.416C641.654 278.306 637.85 273.999 635.313 268.496C632.825 262.945 631.581 254.619 631.581 243.518V205.906ZM764.728 178.416H775.495V218.037L817.628 178.416H831.912L781.165 225.789L835.859 284H821.863L775.495 234.761V284H764.728V178.416ZM853.445 173.75C855.742 173.75 857.704 174.563 859.331 176.19C860.958 177.817 861.771 179.779 861.771 182.076C861.771 184.325 860.958 186.263 859.331 187.89C857.704 189.517 855.742 190.331 853.445 190.331C851.196 190.331 849.258 189.517 847.631 187.89C846.004 186.263 845.19 184.325 845.19 182.076C845.19 179.779 846.004 177.817 847.631 176.19C849.258 174.563 851.196 173.75 853.445 173.75ZM848.42 205.906H858.541V284H848.42V205.906ZM877.849 175.76H887.898V284H877.849V175.76ZM907.278 175.76H917.327V284H907.278V175.76ZM941.731 173.75C944.028 173.75 945.99 174.563 947.617 176.19C949.244 177.817 950.057 179.779 950.057 182.076C950.057 184.325 949.244 186.263 947.617 187.89C945.99 189.517 944.028 190.331 941.731 190.331C939.482 190.331 937.544 189.517 935.917 187.89C934.29 186.263 933.477 184.325 933.477 182.076C933.477 179.779 934.29 177.817 935.917 176.19C937.544 174.563 939.482 173.75 941.731 173.75ZM936.707 205.906H946.827V284H936.707V205.906ZM1045.45 205.906V284H1035.54V270.578C1031.33 275.698 1026.6 279.55 1021.33 282.134C1016.12 284.718 1010.4 286.01 1004.18 286.01C993.124 286.01 983.673 282.014 975.825 274.023C968.025 265.984 964.125 256.222 964.125 244.738C964.125 233.493 968.073 223.875 975.969 215.883C983.864 207.892 993.363 203.896 1004.46 203.896C1010.88 203.896 1016.67 205.26 1021.83 207.988C1027.05 210.715 1031.62 214.807 1035.54 220.262V205.906H1045.45ZM1005.25 213.586C999.655 213.586 994.487 214.974 989.75 217.75C985.013 220.477 981.232 224.329 978.409 229.306C975.634 234.282 974.246 239.546 974.246 245.097C974.246 250.6 975.658 255.863 978.481 260.888C981.304 265.912 985.084 269.836 989.822 272.659C994.607 275.435 999.727 276.822 1005.18 276.822C1010.69 276.822 1015.9 275.435 1020.83 272.659C1025.76 269.884 1029.54 266.127 1032.17 261.39C1034.85 256.653 1036.19 251.317 1036.19 245.384C1036.19 236.34 1033.2 228.779 1027.22 222.702C1021.28 216.625 1013.96 213.586 1005.25 213.586ZM1068.13 205.906H1078.18V219.903C1082.2 214.543 1086.65 210.548 1091.53 207.916C1096.41 205.236 1101.72 203.896 1107.46 203.896C1113.3 203.896 1118.47 205.38 1122.97 208.347C1127.51 211.313 1130.86 215.309 1133.02 220.333C1135.17 225.358 1136.25 233.182 1136.25 243.805V284H1126.27V246.748C1126.27 237.751 1125.89 231.746 1125.12 228.731C1123.93 223.563 1121.68 219.688 1118.38 217.104C1115.07 214.472 1110.77 213.156 1105.46 213.156C1099.38 213.156 1093.92 215.166 1089.09 219.185C1084.3 223.205 1081.15 228.181 1079.62 234.115C1078.66 237.991 1078.18 245.073 1078.18 255.361V284H1068.13V205.906Z" fill="white"/>
        <path fill-rule="evenodd" clip-rule="evenodd" d="M340.195 135.697C326.436 134.168 312.677 132.64 297.389 128.053C292.802 176.975 280.572 235.069 275.985 256.473C272.928 265.645 274.457 265.645 282.101 267.174C294.331 268.703 306.561 271.761 318.792 268.703C326.436 224.368 334.08 180.032 340.195 135.697Z" fill="#3A5C3C"/>
        <path fill-rule="evenodd" clip-rule="evenodd" d="M347.839 -11.068C332.551 -6.4816 317.263 -9.53921 305.033 -15.6544C301.975 25.6233 303.504 65.3722 300.446 106.65C300.446 109.707 300.446 115.823 298.918 120.409C297.389 124.995 297.389 123.467 301.975 124.995C312.677 128.053 327.965 131.111 341.724 132.64C343.253 86.7754 346.311 34.7961 347.839 -11.068Z" fill="#3A5C3C"/>
        <path fill-rule="evenodd" clip-rule="evenodd" d="M318.792 273.289C301.975 276.347 289.745 271.761 275.985 271.761C268.341 262.588 260.697 248.829 253.053 232.012C283.629 189.205 263.755 108.179 259.168 57.7282C259.168 57.7282 230.121 157.1 249.996 227.425C236.236 198.378 227.064 163.216 227.064 138.755C254.582 92.8907 236.236 16.4505 231.65 -34C231.65 -34 201.074 68.4298 224.006 140.284C224.006 161.687 230.121 187.676 239.294 213.666C213.304 170.86 136.864 157.1 91.0001 143.341C91.0001 143.341 170.498 210.609 240.823 218.253C249.996 242.713 265.284 268.703 272.928 282.462C266.812 314.567 254.582 404.767 260.697 407.824C274.456 413.939 288.216 413.939 303.504 412.411C306.561 360.431 323.378 280.933 318.792 273.289Z" fill="#3A5C3C"/>
    </g>
    <defs>
        <clipPath id="clip0_27:6">
            <rect width="1584" height="396" fill="white"/>
        </clipPath>
        <clipPath id="clip1_27:6">
            <rect width="270" height="264" fill="white" transform="translate(1291 49)"/>
        </clipPath>
    </defs>
</svg>
