<?xml version="1.0" encoding="UTF-8" standalone="no"?>
<!-- Created with Inkscape (http://www.inkscape.org/) -->
<svg
   xmlns:dc="http://purl.org/dc/elements/1.1/"
   xmlns:cc="http://web.resource.org/cc/"
   xmlns:rdf="http://www.w3.org/1999/02/22-rdf-syntax-ns#"
   xmlns:svg="http://www.w3.org/2000/svg"
   xmlns="http://www.w3.org/2000/svg"
   xmlns:sodipodi="http://sodipodi.sourceforge.net/DTD/sodipodi-0.dtd"
   xmlns:inkscape="http://www.inkscape.org/namespaces/inkscape"
   height="390.45001"
   width="262.75"
   id="svg2"
   sodipodi:version="0.32"
   inkscape:version="0.44.1"
   sodipodi:docbase="D:\dokumenty\kot\do wiki\upload"
   sodipodi:docname="WWF logo.svg"
   version="1.0">
  <defs
     id="defs4" />
  <sodipodi:namedview
     id="base"
     pagecolor="#ffffff"
     bordercolor="#666666"
     borderopacity="1.0"
     inkscape:pageopacity="0.0"
     inkscape:pageshadow="2"
     inkscape:cx="131.375"
     inkscape:cy="195.22501"
     inkscape:zoom="1.2543399"
     inkscape:document-units="px"
     inkscape:current-layer="layer1"
     inkscape:window-width="1024"
     inkscape:window-height="682"
     inkscape:window-x="-4"
     inkscape:window-y="-4"
     showguides="true"
     inkscape:guide-bbox="true"
     width="262.75px"
     height="390.45px" />
  <metadata
     id="metadata7">
    <rdf:RDF>
      <cc:Work
         rdf:about="">
        <dc:format>image/svg+xml</dc:format>
        <dc:type
           rdf:resource="http://purl.org/dc/dcmitype/StillImage" />
      </cc:Work>
    </rdf:RDF>
  </metadata>
  <g
     inkscape:groupmode="layer"
     inkscape:label="Warstwa 1"
     id="layer1"
     transform="translate(-99.43121,-98.10652)">
    <g
       id="g3689"
       transform="translate(1.498768,1.497607)">
      <path
         id="path2891"
         d="M 219.18125,98.413355 C 213.6053,98.542179 207.73049,100.38728 203.49864,104.03542 C 195.97538,110.521 188.4628,117.25945 188.72222,126.07984 C 188.98165,134.90023 193.90044,139.83911 193.90044,139.83911 C 193.90045,139.83911 197.27295,142.42309 193.90044,145.01733 C 190.52795,147.61156 150.58424,173.04268 152.65963,225.44617 C 152.65963,225.44617 153.69835,239.08429 152.14181,253.61198 C 151.02364,264.04824 154.69234,276.70301 156.85768,283.03536 C 156.9121,283.09519 157.92042,285.69971 155.63711,284.18198 C 144.80954,277.41514 135.96779,267.24406 128.56242,254.61064 C 121.76715,242.26883 117.89158,228.0076 117.89158,212.83351 C 117.89158,180.60464 135.39003,152.53253 161.1667,138.08221 C 125.80136,147.83446 99.730831,180.95514 99.730829,220.28645 C 99.730829,223.29325 99.877577,226.27373 100.17468,229.20038 C 100.46212,235.98194 101.21029,246.80458 103.11516,251.13383 C 105.96882,257.61941 105.70427,271.62018 105.70427,273.95499 C 105.70427,276.2898 106.48382,353.07129 151.8829,352.81187 C 151.8829,352.81188 173.52136,353.34969 173.66841,344.52672 C 173.79812,336.74403 171.57675,335.92676 169.52583,331.41473 C 167.58015,327.13425 166.15794,326.87395 167.19563,313.12452 C 167.19563,313.12453 167.24907,310.34136 168.28676,310.2765 C 169.32444,310.21165 181.97676,347.89062 198.32042,367.60678 C 214.66408,387.32293 231.01109,389.39229 243.4634,389.39229 C 243.4634,389.39229 266.80238,389.39685 266.80238,377.72281 C 266.80238,366.04875 256.16853,370.713 256.16853,333.61547 C 256.16854,296.51795 274.06628,298.34867 276.14166,307.42848 C 278.21704,316.5083 280.0325,323.76568 276.40058,348.15148 C 272.76865,372.53726 282.63349,375.3926 291.71331,375.3926 C 300.79312,375.3926 348.52788,376.93813 356.82942,240.4815 C 356.82942,240.48149 357.86092,218.43749 350.59706,199.4996 C 350.59706,199.4996 353.71157,235.81967 331.14175,255.27641 C 308.57194,274.73315 295.59698,271.8837 295.59698,271.8837 C 295.59698,271.8837 284.71293,271.09621 280.30273,276.5441 C 275.89255,281.99198 276.65943,285.88902 267.3202,283.03536 C 257.98096,280.18171 257.94234,277.8551 249.38136,278.89279 C 240.8204,279.93048 235.66574,280.95942 232.29325,273.95499 C 228.92074,266.95056 225.15003,262.43601 218.14561,261.1389 C 211.14118,259.84179 180.36418,245.19946 181.19532,203.91958 C 181.97359,165.52493 199.35607,152.28533 199.35607,152.28533 C 199.35607,152.28533 202.21695,149.17584 205.0706,150.47295 C 207.92427,151.77007 212.58676,152.03615 218.03465,147.10711 C 223.48253,142.17806 227.11405,138.27381 236.97213,134.90131 C 236.97214,134.90131 243.72283,133.86049 243.4634,127.11549 C 243.20399,120.37048 237.74421,105.59759 230.73978,101.1874 C 227.67534,99.257943 223.51811,98.313157 219.18125,98.413355 z M 242.72366,284.0895 C 244.29097,284.03174 246.55041,285.0688 248.93752,285.97586 C 252.40967,287.29522 260.3494,286.67216 263.45503,286.45669 C 266.56064,286.24121 268.64173,287.5589 266.1551,290.5068 C 262.72692,294.57087 258.62599,294.4197 253.44997,294.77883 C 248.27395,295.13797 242.72366,290.06295 242.72366,290.06295 C 242.42894,289.56331 239.9094,286.8786 241.07772,284.9772 C 241.44282,284.38302 242.01124,284.11577 242.72366,284.0895 z "
         style="opacity:1;fill:black;fill-opacity:1;stroke:black;stroke-width:0.59924406;stroke-linecap:round;stroke-linejoin:round;stroke-miterlimit:4;stroke-dasharray:none;stroke-dashoffset:0;stroke-opacity:1" />
      <path
         transform="matrix(0.591797,0,0,0.591797,40.58817,40.04743)"
         d="M 203.40167 560.07751 A 16.21953 16.21953 0 1 1  170.96261,560.07751 A 16.21953 16.21953 0 1 1  203.40167 560.07751 z"
         sodipodi:ry="16.21953"
         sodipodi:rx="16.21953"
         sodipodi:cy="560.07751"
         sodipodi:cx="187.18214"
         id="path2925"
         style="opacity:1;fill:none;fill-opacity:1;stroke:#6d6d6d;stroke-width:4;stroke-linecap:round;stroke-linejoin:round;stroke-miterlimit:4;stroke-dasharray:none;stroke-dashoffset:0;stroke-opacity:1"
         sodipodi:type="arc" />
      <path
         sodipodi:nodetypes="csssss"
         id="path2931"
         d="M 216.21772,201.31768 C 222.21372,193.96193 225.55695,193.01613 230.74542,193.01613 C 235.93389,193.01613 243.13229,196.34316 245.27312,204.43076 C 247.60793,213.25115 248.7927,214.60237 240.38465,224.44692 C 234.35215,231.51007 223.48157,246.97617 212.58579,237.11809 C 201.69001,227.26 205.73514,214.17744 216.21772,201.31768 z "
         style="opacity:1;color:black;fill:black;fill-opacity:1;fill-rule:nonzero;stroke:black;stroke-width:0.59179652;stroke-linecap:butt;stroke-linejoin:miter;marker:none;marker-start:none;marker-mid:none;marker-end:none;stroke-miterlimit:4;stroke-dasharray:none;stroke-dashoffset:0;stroke-opacity:1;visibility:visible;display:inline;overflow:visible" />
      <path
         style="opacity:1;color:black;fill:black;fill-opacity:1;fill-rule:nonzero;stroke:black;stroke-width:0.59179652;stroke-linecap:butt;stroke-linejoin:miter;marker:none;marker-start:none;marker-mid:none;marker-end:none;stroke-miterlimit:4;stroke-dasharray:none;stroke-dashoffset:0;stroke-opacity:1;visibility:visible;display:inline;overflow:visible"
         d="M 313.66026,215.05326 C 310.1471,206.23756 307.24158,204.33237 302.29209,202.77587 C 297.3426,201.21937 289.47766,202.23368 285.00921,209.30653 C 280.13587,217.02025 278.45005,217.74902 283.51753,229.6625 C 287.15329,238.21004 293.03374,256.42969 306.38503,250.29431 C 319.73632,244.15894 319.80218,230.46543 313.66026,215.05326 z "
         id="path2933"
         sodipodi:nodetypes="csssss" />
      <path
         sodipodi:nodetypes="cscscscc"
         d="M 256.18839,272.94884 C 258.96384,268.60269 265.43391,267.127 269.18509,267.01127 C 274.09299,266.85987 274.02345,262.62651 274.02345,262.62651 C 274.02345,262.62651 274.36937,258.30479 256.64524,256.58149 C 238.94052,254.86009 238.45517,259.4285 238.45517,259.4285 C 238.45517,259.4285 237.62014,263.57927 242.41947,264.61696 C 246.07529,265.40741 252.13253,268.07954 254.10081,272.8205 C 254.48895,273.97008 255.58584,273.99247 256.18839,272.94884 z "
         style="color:black;fill:black;fill-opacity:1;fill-rule:nonzero;stroke:black;stroke-width:0.59179652;stroke-linecap:butt;stroke-linejoin:round;marker:none;marker-start:none;marker-mid:none;marker-end:none;stroke-miterlimit:4;stroke-dashoffset:0;stroke-opacity:1;visibility:visible;display:inline;overflow:visible"
         id="path2953" />
      <path
         inkscape:transform-center-y="3.7044626"
         inkscape:transform-center-x="-27.384455"
         style="opacity:1;color:black;fill:black;fill-opacity:1;fill-rule:nonzero;stroke:black;stroke-width:0.59179652;stroke-linecap:butt;stroke-linejoin:miter;marker:none;marker-start:none;marker-mid:none;marker-end:none;stroke-miterlimit:4;stroke-dasharray:none;stroke-dashoffset:0;stroke-opacity:1;visibility:visible;display:inline;overflow:visible"
         d="M 339.79595,166.53615 C 336.81617,167.50918 332.14655,167.24976 327.27818,161.74759 C 322.4098,156.24541 319.23128,151.9757 309.80744,147.53197 C 309.80744,147.53197 303.21888,145.75351 304.22386,139.07876 C 305.22883,132.404 312.28116,118.31133 319.731,114.70416 C 327.18085,111.097 339.72815,113.27856 346.48672,120.55757 C 353.24529,127.8366 359.97512,135.37345 358.74025,144.11083 C 357.50539,152.8482 352.06069,157.20092 352.06069,157.20092 L 352.15551,157.21572 C 349.56128,160.58824 339.79595,166.53615 339.79595,166.53615 z "
         id="path3847"
         sodipodi:nodetypes="cscssssc" />
      <path
         id="text4756"
         d="M 153.91922,372.6494 L 155.9096,373.2805 C 155.60445,374.39012 155.09703,375.21425 154.38735,375.75287 C 153.67765,376.2915 152.77724,376.56081 151.68612,376.56081 C 150.33608,376.56081 149.22646,376.09962 148.35726,375.17726 C 147.48806,374.25489 147.05346,372.99386 147.05346,371.39415 C 147.05346,369.70199 147.49037,368.38779 148.3642,367.45154 C 149.23802,366.51531 150.38694,366.04719 151.81095,366.04718 C 153.05464,366.04719 154.06486,366.41475 154.8416,367.14986 C 155.30393,367.58448 155.65069,368.20863 155.88186,369.02234 L 153.84988,369.5078 C 153.72966,368.98074 153.47884,368.56463 153.09741,368.25948 C 152.71598,367.95434 152.25248,367.80177 151.70692,367.80177 C 150.95331,367.80177 150.34186,368.07224 149.87259,368.61317 C 149.40331,369.15412 149.16867,370.03025 149.16867,371.24158 C 149.16867,372.52689 149.39984,373.44232 149.86218,373.98788 C 150.32452,374.53345 150.92557,374.80623 151.66531,374.80623 C 152.21087,374.80623 152.68015,374.63285 153.07315,374.2861 C 153.46613,373.93935 153.74815,373.39378 153.91922,372.6494 L 153.91922,372.6494 z "
         style="font-size:24px;font-style:normal;font-variant:normal;font-weight:bold;font-stretch:normal;text-align:start;line-height:100%;writing-mode:lr-tb;text-anchor:start;fill:#6d6d6d;fill-opacity:1;stroke:#6d6d6d;stroke-width:0.59179652px;stroke-linecap:butt;stroke-linejoin:miter;stroke-opacity:1;font-family:Arial" />
      <path
         transform="matrix(0.591797,0,0,0.591797,231.7359,65.12532)"
         sodipodi:type="arc"
         style="fill:none;fill-opacity:1;stroke:#6d6d6d;stroke-width:4;stroke-linecap:round;stroke-linejoin:round;stroke-miterlimit:4;stroke-dasharray:none;stroke-dashoffset:0;stroke-opacity:1"
         id="path4760"
         sodipodi:cx="187.18214"
         sodipodi:cy="560.07751"
         sodipodi:rx="16.21953"
         sodipodi:ry="16.21953"
         d="M 203.40167 560.07751 A 16.21953 16.21953 0 1 1  170.96261,560.07751 A 16.21953 16.21953 0 1 1  203.40167 560.07751 z" />
      <path
         id="text4762"
         d="M 338.53114,401.66065 L 338.53114,391.49378 L 342.85171,391.49378 C 343.93821,391.49379 344.72766,391.5851 345.22005,391.76772 C 345.71244,391.95035 346.10658,392.27514 346.40249,392.7421 C 346.69838,393.20907 346.84632,393.74308 346.84634,394.34411 C 346.84632,395.10698 346.62209,395.73692 346.17363,396.23393 C 345.72515,396.73095 345.05476,397.04418 344.16245,397.17363 C 344.60629,397.43255 344.97269,397.71689 345.26166,398.02665 C 345.55061,398.33643 345.94014,398.88661 346.43023,399.67721 L 347.67161,401.66065 L 345.21658,401.66065 L 343.73247,399.44835 C 343.2054,398.65776 342.84477,398.15958 342.6506,397.95384 C 342.4564,397.74809 342.25066,397.60709 342.03337,397.5308 C 341.81606,397.45452 341.47162,397.41637 341.00003,397.41636 L 340.58393,397.41636 L 340.58393,401.66065 L 338.53114,401.66065 z M 340.58393,395.79354 L 342.10272,395.79354 C 343.0875,395.79355 343.70241,395.75194 343.94745,395.66871 C 344.19249,395.5855 344.38436,395.44218 344.52308,395.23874 C 344.66177,395.03531 344.73112,394.78103 344.73113,394.47588 C 344.73112,394.13376 344.6398,393.8575 344.45719,393.64713 C 344.27456,393.43677 344.01681,393.30385 343.68392,393.24836 C 343.51747,393.22525 343.01815,393.2137 342.18594,393.21369 L 340.58393,393.21369 L 340.58393,395.79354 z "
         style="font-size:24px;font-style:normal;font-variant:normal;font-weight:bold;font-stretch:normal;text-align:start;line-height:100%;writing-mode:lr-tb;text-anchor:start;fill:#6d6d6d;fill-opacity:1;stroke:#6d6d6d;stroke-width:0.59179652px;stroke-linecap:butt;stroke-linejoin:miter;stroke-opacity:1;font-family:Arial" />
      <path
         sodipodi:nodetypes="cccsccscsccsscssccsscc"
         id="path1898"
         d="M 108.09407,415.27069 L 108.09407,415.27069 L 121.30174,415.27069 C 121.30174,415.27069 124.72408,414.65076 126.07118,418.12278 C 127.65821,422.21317 134.19434,448.43882 134.19434,448.43882 L 143.55678,434.58285 C 143.55678,434.58285 139.73746,415.17896 146.43302,415.27069 C 154.50365,415.3783 158.99866,415.27069 158.99866,415.27069 C 158.99866,415.27069 162.21537,414.96361 164.22669,420.32405 C 166.59622,426.63915 172.36214,448.86473 172.36214,448.86473 L 185.68917,418.48966 C 185.68917,418.48966 187.52357,415.27069 190.45861,415.27069 C 193.57709,415.27069 195.55042,417.45579 194.86117,419.95718 C 193.8115,423.76663 171.74773,481.77644 171.74773,481.77644 C 171.74773,481.77644 170.28022,485.2618 167.16173,485.2618 C 164.04325,485.2618 162.75918,483.4274 161.10822,479.20828 C 159.45726,474.98916 149.00118,446.73941 149.00118,446.73941 L 133.22535,482.51021 C 133.22535,482.51021 132.03298,485.2618 129.55654,485.2618 C 126.6215,485.2618 125.52086,483.97772 124.05335,481.22612 C 122.58582,478.47453 104.05839,425.46037 104.05839,425.46037 C 104.05839,425.46037 100.38959,415.2707 108.09407,415.27069 z "
         style="opacity:1;color:black;fill:black;fill-opacity:1;fill-rule:nonzero;stroke:black;stroke-width:0.59179652;stroke-linecap:butt;stroke-linejoin:miter;marker:none;marker-start:none;marker-mid:none;marker-end:none;stroke-miterlimit:4;stroke-dasharray:none;stroke-dashoffset:0;stroke-opacity:1;visibility:visible;display:inline;overflow:visible" />
      <path
         style="opacity:1;color:black;fill:black;fill-opacity:1;fill-rule:nonzero;stroke:black;stroke-width:0.59179652;stroke-linecap:butt;stroke-linejoin:miter;marker:none;marker-start:none;marker-mid:none;marker-end:none;stroke-miterlimit:4;stroke-dasharray:none;stroke-dashoffset:0;stroke-opacity:1;visibility:visible;display:inline;overflow:visible"
         d="M 205.63721,415.27069 L 205.63721,415.27069 L 218.84489,415.27069 C 218.84489,415.27069 222.26723,414.65076 223.61433,418.12278 C 225.20135,422.21317 231.73749,448.43882 231.73749,448.43882 L 241.09992,434.58285 C 241.09992,434.58285 237.2806,415.17896 243.97616,415.27069 C 252.0468,415.3783 256.54181,415.27069 256.54181,415.27069 C 256.54181,415.27069 259.75851,414.96361 261.76984,420.32405 C 264.13936,426.63915 269.90529,448.86473 269.90529,448.86473 L 283.23231,418.48966 C 283.23231,418.48966 285.06671,415.27069 288.00175,415.27069 C 291.12024,415.27069 293.09356,417.45579 292.40432,419.95718 C 291.35464,423.76663 269.29088,481.77644 269.29088,481.77644 C 269.29088,481.77644 267.82336,485.2618 264.70487,485.2618 C 261.5864,485.2618 260.30232,483.4274 258.65136,479.20828 C 257.00041,474.98916 246.54433,446.73941 246.54433,446.73941 L 230.76849,482.51021 C 230.76849,482.51021 229.57613,485.2618 227.09969,485.2618 C 224.16465,485.2618 223.06401,483.97772 221.59649,481.22612 C 220.12897,478.47453 201.60153,425.46037 201.60153,425.46037 C 201.60153,425.46037 197.93274,415.2707 205.63721,415.27069 z "
         id="path1908"
         sodipodi:nodetypes="cccsccscsccsscssccsscc" />
      <path
         sodipodi:nodetypes="cscscsccsccscccsc"
         id="path1910"
         d="M 303.25422,485.2618 C 303.25422,485.2618 298.71431,485.64559 298.71431,478.51144 C 298.71431,471.37731 298.71431,419.62236 298.71431,419.62236 C 298.71431,419.62236 298.71431,415.21217 305.1999,415.21217 C 311.68548,415.21217 349.56128,415.21217 349.56128,415.21217 C 349.56128,415.21217 354.93621,414.95274 354.93621,420.14121 C 354.93621,425.32967 349.95041,424.81083 349.95041,424.81083 L 323.48923,424.81083 C 323.48923,424.81083 320.37616,424.81083 320.37616,427.7942 C 320.37616,430.77756 320.37616,442.32189 320.37616,442.32189 L 340.74089,442.32189 C 340.74089,442.32189 346.24554,442.32189 346.24554,446.60239 C 346.24554,450.88286 341.64887,451.14229 341.64887,451.14229 L 320.24644,451.14229 L 320.24644,479.45999 C 320.24644,479.45999 320.56264,485.2618 316.801,485.2618 C 314.20676,485.2618 303.25422,485.12674 303.25422,485.2618 z "
         style="opacity:1;color:black;fill:black;fill-opacity:1;fill-rule:nonzero;stroke:black;stroke-width:0.59179652;stroke-linecap:butt;stroke-linejoin:miter;marker:none;marker-start:none;marker-mid:none;marker-end:none;stroke-miterlimit:4;stroke-dasharray:none;stroke-dashoffset:0;stroke-opacity:1;visibility:visible;display:inline;overflow:visible" />
    </g>
  </g>
</svg>
