<svg width="67" height="67" viewBox="0 0 67 67" fill="none" xmlns="http://www.w3.org/2000/svg">
<path d="M30.7053 25.1573C32.0346 25.1573 33.1439 26.0993 33.4021 27.3521C35.474 25.9324 37.9412 25.1573 40.4883 25.1573C43.8132 25.1573 47.0019 26.4781 49.3529 28.8291C51.704 31.1801 53.0248 34.3688 53.0248 37.6937V50.2718C53.0248 51.7925 51.792 53.0253 50.2714 53.0253C48.7507 53.0253 47.5179 51.7925 47.5179 50.2718V37.6937C47.5179 35.8293 46.7773 34.0413 45.459 32.723C44.1407 31.4047 42.3527 30.6641 40.4883 30.6641C38.624 30.6641 36.836 31.4047 35.5177 32.723C34.1994 34.0413 33.4588 35.8293 33.4588 37.6937V50.2718C33.4588 51.7925 32.226 53.0253 30.7053 53.0253C29.1847 53.0253 27.9519 51.7925 27.9519 50.2718V27.9107C27.9519 26.39 29.1847 25.1573 30.7053 25.1573Z" fill="#143649"/>
<path d="M22.2784 27.9107C22.2784 26.39 21.0456 25.1573 19.5249 25.1573C18.0043 25.1573 16.7715 26.39 16.7715 27.9107V50.2718C16.7715 51.7925 18.0043 53.0253 19.5249 53.0253C21.0456 53.0253 22.2784 51.7925 22.2784 50.2718V27.9107Z" fill="#143649"/>
<path d="M23.7175 16.7301C23.7175 19.0457 21.8403 20.9228 19.5248 20.9228C17.2092 20.9228 15.3321 19.0457 15.3321 16.7301C15.3321 14.4145 17.2092 12.5374 19.5248 12.5374C21.8403 12.5374 23.7175 14.4145 23.7175 16.7301Z" fill="#143649"/>
<path fill-rule="evenodd" clip-rule="evenodd" d="M0 5.54857C0 2.48418 2.48418 0 5.54857 0H61.4514C64.5158 0 67 2.48418 67 5.54857V61.4514C67 64.5158 64.5158 67 61.4514 67H5.54857C2.48418 67 0 64.5158 0 61.4514V5.54857ZM5.50774 5.53724C5.50774 5.53724 5.50685 5.54207 5.50685 5.54857V61.4514L5.50698 61.4563L5.50715 61.4586C5.50735 61.4607 5.50774 61.4628 5.50774 61.4628L5.509 61.4668C5.51027 61.4698 5.51329 61.4752 5.51907 61.4809C5.52484 61.4867 5.53018 61.4897 5.53317 61.491L5.53724 61.4923C5.53724 61.4923 5.54207 61.4932 5.54857 61.4932H61.4514C61.4579 61.4932 61.4628 61.4923 61.4628 61.4923L61.4656 61.4915L61.4668 61.491C61.4698 61.4897 61.4752 61.4867 61.4809 61.4809L61.4833 61.4784L61.4857 61.4756L61.4883 61.4719C61.4896 61.4699 61.491 61.4668 61.491 61.4668L61.492 61.464L61.4923 61.4628C61.4923 61.4628 61.4932 61.4579 61.4932 61.4514V5.54857C61.4932 5.54598 61.4929 5.54219 61.4929 5.54219C61.4927 5.53964 61.4923 5.53724 61.4923 5.53724L61.491 5.53317C61.4897 5.53018 61.4867 5.52484 61.4809 5.51907C61.4752 5.51329 61.4698 5.51027 61.4668 5.509L61.4655 5.50847L61.4628 5.50774C61.4628 5.50774 61.4579 5.50685 61.4514 5.50685H5.54857C5.54207 5.50685 5.53724 5.50774 5.53724 5.50774L5.53493 5.50834L5.53317 5.509C5.53018 5.51027 5.52484 5.51329 5.51907 5.51907C5.51329 5.52484 5.51027 5.53018 5.509 5.53317L5.5084 5.53476L5.50774 5.53724Z" fill="#143649"/>
</svg>
