<svg width="67" height="48" viewBox="0 0 67 48" fill="none" xmlns="http://www.w3.org/2000/svg">
<path d="M6.74966 0.000132359H60.2519C62.1085 0.000132359 63.7974 0.759593 65.019 1.98175L65.0891 2.05887C66.2692 3.27459 67 4.93259 67 6.7494V40.8796C67 42.7193 66.2522 44.3942 65.0493 45.6128C63.8447 46.8332 62.1744 47.6008 60.3365 47.6236L6.75052 47.6282C4.89273 47.6282 3.20439 46.8694 1.98162 45.6466C0.760044 44.4251 0 42.7361 0 40.8789V6.74869C0 4.8921 0.75946 3.20256 1.98162 1.98098L2.05873 1.91088C3.27446 0.730792 4.93126 0 6.75046 0L6.74966 0.000132359ZM64.4455 41.4706L43.0709 25.4068L34.2501 32.0216C33.795 32.3628 33.1816 32.347 32.7487 32.0216L24.0043 25.4809L2.55491 41.476C2.68752 42.4031 3.12392 43.2356 3.75779 43.8701C4.5266 44.6389 5.58581 45.1156 6.75011 45.1156H60.3227C61.4671 45.1027 62.5087 44.6202 63.2635 43.8555C63.8875 43.2222 64.3168 42.3932 64.4465 41.4708L64.4455 41.4706ZM45.1557 23.8424L64.4858 38.371V9.34515L45.1557 23.8424ZM2.51124 38.3757L21.9072 23.9113L2.51124 9.40258V38.3757ZM2.53519 6.29585L33.4978 29.4576L64.456 6.24052C64.3432 5.30462 63.922 4.4587 63.2998 3.81202L63.2414 3.75769C62.4738 2.99005 61.4146 2.51217 60.2509 2.51217H6.74862C5.61117 2.51217 4.57362 2.96611 3.81059 3.69928L3.75626 3.75769C3.08968 4.42427 2.64043 5.31278 2.53468 6.29716L2.53519 6.29585Z" fill="#143649"/>
</svg>
