<svg width="68" height="94" viewBox="0 0 68 94" fill="none" xmlns="http://www.w3.org/2000/svg">
    <path d="M10.3011 50.9783H56.9098C57.7109 50.9783 58.3663 50.3228 58.3663 49.5217C58.3663 48.7207 57.7109 48.0652 56.9098 48.0652H10.3011C9.50003 48.0652 8.8446 48.7207 8.8446 49.5217C8.8446 50.3228 9.50003 50.9783 10.3011 50.9783Z" fill="#143649"/>
    <path d="M56.9098 43.6956H10.3011C9.50003 43.6956 8.8446 43.0401 8.8446 42.239C8.8446 41.438 9.50003 40.7825 10.3011 40.7825H56.9098C57.7109 40.7825 58.3663 41.438 58.3663 42.239C58.3663 43.0401 57.7109 43.6956 56.9098 43.6956Z" fill="#143649"/>
    <path d="M10.3011 58.2609H56.9098C57.7109 58.2609 58.3663 57.6055 58.3663 56.8044C58.3663 56.0033 57.7109 55.3479 56.9098 55.3479H10.3011C9.50003 55.3479 8.8446 56.0033 8.8446 56.8044C8.8446 57.6055 9.50003 58.2609 10.3011 58.2609Z" fill="#143649"/>
    <path d="M56.9098 65.5434H10.3011C9.50003 65.5434 8.8446 64.888 8.8446 64.0869C8.8446 63.2858 9.50003 62.6304 10.3011 62.6304H56.9098C57.7109 62.6304 58.3663 63.2858 58.3663 64.0869C58.3663 64.888 57.7109 65.5434 56.9098 65.5434Z" fill="#143649"/>
    <path d="M53.9969 75.739H39.4316C38.6305 75.739 37.9751 76.3945 37.9751 77.1956C37.9751 77.9967 38.6305 78.6521 39.4316 78.6521H53.9969C54.7979 78.6521 55.4534 77.9967 55.4534 77.1956C55.4534 76.3945 54.7979 75.739 53.9969 75.739Z" fill="#143649"/>
    <path d="M42.3445 81.5653H51.0836C51.8847 81.5653 52.5402 82.2207 52.5402 83.0218C52.5402 83.8229 51.8847 84.4783 51.0836 84.4783H42.3445C41.5434 84.4783 40.888 83.8229 40.888 83.0218C40.888 82.2207 41.5434 81.5653 42.3445 81.5653Z" fill="#143649"/>
    <path d="M40.8881 16.0217H56.9098C57.7109 16.0217 58.3663 15.3663 58.3663 14.5652C58.3663 13.7641 57.7109 13.1087 56.9098 13.1087H40.8881C40.087 13.1087 39.4316 13.7641 39.4316 14.5652C39.4316 15.3663 40.087 16.0217 40.8881 16.0217Z" fill="#143649"/>
    <path d="M56.9098 23.3044H40.8881C40.087 23.3044 39.4316 22.649 39.4316 21.8479C39.4316 21.0468 40.087 20.3914 40.8881 20.3914H56.9098C57.7109 20.3914 58.3663 21.0468 58.3663 21.8479C58.3663 22.649 57.7109 23.3044 56.9098 23.3044Z" fill="#143649"/>
    <path d="M40.8881 30.5869H56.9098C57.7109 30.5869 58.3663 29.9314 58.3663 29.1304C58.3663 28.3293 57.7109 27.6738 56.9098 27.6738H40.8881C40.087 27.6738 39.4316 28.3293 39.4316 29.1304C39.4316 29.9314 40.087 30.5869 40.8881 30.5869Z" fill="#143649"/>
    <path fill-rule="evenodd" clip-rule="evenodd" d="M35.062 21.8478C35.062 29.0718 29.1773 34.9565 21.9533 34.9565C14.7293 34.9565 8.8446 29.0718 8.8446 21.8478C8.8446 14.6238 14.7293 8.73913 21.9533 8.73913C29.1773 8.73913 35.062 14.6238 35.062 21.8478ZM21.9533 26.2174C19.3166 26.2174 16.9575 27.6303 15.661 29.8587C17.3945 31.2131 19.5792 32.0435 21.9533 32.0435C24.3273 32.0435 26.5121 31.2281 28.2456 29.8587C26.9641 27.6154 24.5893 26.2174 21.9533 26.2174ZM21.9533 17.4783C20.3511 17.4783 19.0403 18.7891 19.0403 20.3913C19.0403 21.9935 20.3511 23.3043 21.9533 23.3043C23.5555 23.3043 24.8663 21.9935 24.8663 20.3913C24.8663 18.7891 23.5555 17.4783 21.9533 17.4783ZM32.1489 21.8478C32.1489 16.2261 27.5753 11.6523 21.9535 11.6522C16.3317 11.6522 11.7579 16.226 11.7579 21.8478C11.7579 24.0176 12.4425 26.0275 13.6077 27.6882C14.6415 26.2026 16.0109 25.023 17.6274 24.2655C16.7099 23.2316 16.1273 21.8773 16.1273 20.3915C16.1273 17.1728 18.7347 14.5654 21.9534 14.5654C25.1721 14.5654 27.7795 17.1728 27.7795 20.3915C27.7795 21.8914 27.2119 23.2316 26.2794 24.2655C27.8957 25.0229 29.2652 26.2024 30.2991 27.6882C31.4642 26.0281 32.1489 24.0183 32.1489 21.8478Z" fill="#143649"/>
    <path fill-rule="evenodd" clip-rule="evenodd" d="M65.6489 0H1.56199C0.760904 0 0.105469 0.655435 0.105469 1.45652V91.7609C0.105469 92.562 0.760904 93.2174 1.56199 93.2174H65.6489C66.45 93.2174 67.1055 92.562 67.1055 91.7609V1.45652C67.1055 0.655435 66.45 0 65.6489 0ZM64.1924 90.3043H3.01851V2.91304H64.1924V90.3043Z" fill="#143649"/>
</svg>
