<svg width="72" height="94" viewBox="0 0 72 94" fill="none" xmlns="http://www.w3.org/2000/svg">
<path fill-rule="evenodd" clip-rule="evenodd" d="M17.1171 0.73047L18.8398 0H63.1208C68.0075 0 71.9997 4 71.9997 8.8789V84.7189C71.9997 87.0744 70.9763 89.4923 69.3864 90.9884L69.3903 90.9923C67.7809 92.6017 65.5622 93.5978 63.1169 93.5978L8.8789 93.6017C3.9922 93.6017 0 89.6017 0 84.7228V18.8398L0.730471 17.1171L17.1171 0.73047ZM18.7343 41.7035H53.2613C56.4215 41.7035 56.4215 36.9027 53.2613 36.9027H18.7343C15.5741 36.9027 15.5741 41.7035 18.7343 41.7035ZM18.7343 74.3445H53.2613C56.4215 74.3445 56.4215 69.5437 53.2613 69.5437H18.7343C15.5741 69.5437 15.5741 74.3445 18.7343 74.3445ZM18.7343 58.0245H53.2613C56.4215 58.0245 56.4215 53.2237 53.2613 53.2237H18.7343C15.5741 53.2237 15.5741 58.0245 18.7343 58.0245ZM4.80029 21.2395V84.7235C4.80029 86.9774 6.64799 88.8016 8.87839 88.8016H63.1204C64.2376 88.8016 65.261 88.3406 65.9993 87.6024L66.0032 87.6063C66.7415 86.868 67.1985 85.8446 67.1985 84.7235V8.87948C67.1985 6.62558 65.3508 4.80138 63.1204 4.80138H21.2374V13.3756C21.2374 17.692 17.6905 21.2389 13.3741 21.2389L4.7999 21.2428L4.80029 21.2395ZM16.4413 13.3762V8.19257L8.1952 16.4387H13.3788C15.0702 16.4426 16.4413 15.0715 16.4413 13.3762Z" fill="#143649"/>
</svg>
