<svg width="67" height="64" viewBox="0 0 67 64" fill="none" xmlns="http://www.w3.org/2000/svg">
    <path fill-rule="evenodd" clip-rule="evenodd" d="M33.4969 0.722335C14.9983 0.722335 0 15.0424 0 32.7083C0 46.8398 9.59787 58.8272 22.9098 63.0586C24.5859 63.3511 25.1967 62.3635 25.1967 61.5152C25.1967 60.7573 25.1679 58.7447 25.1515 56.0762C15.8333 58.0084 13.8672 51.7879 13.8672 51.7879C12.3433 48.0945 10.147 47.1108 10.147 47.1108C7.10534 45.1256 10.3773 45.1649 10.3773 45.1649C13.7397 45.3927 15.5084 48.4617 15.5084 48.4617C18.4965 53.3489 23.3499 51.9371 25.2584 51.1203C25.5628 49.0527 26.4265 47.6429 27.3849 46.8437C19.9464 46.0367 12.1254 43.2917 12.1254 31.0353C12.1254 27.5442 13.4313 24.6892 15.5742 22.4527C15.2287 21.6438 14.0791 18.3922 15.9012 13.988C15.9012 13.988 18.7145 13.1279 25.1145 17.2671C27.7859 16.5582 30.6527 16.2028 33.501 16.191C36.3452 16.2028 39.212 16.5582 41.8876 17.2671C48.2834 13.1279 51.0906 13.988 51.0906 13.988C52.9189 18.3922 51.7693 21.6438 51.4238 22.4527C53.5708 24.6892 54.8685 27.5442 54.8685 31.0353C54.8685 43.3231 47.0351 46.0269 39.5719 46.8182C40.775 47.8059 41.8465 49.7576 41.8465 52.7422C41.8465 57.0168 41.8053 60.4667 41.8053 61.5152C41.8053 62.3713 42.4079 63.3668 44.1087 63.0546C57.4104 58.8154 67 46.8359 67 32.7083C67 15.0424 51.9996 0.722335 33.4969 0.722335Z" fill="#292929"/>
</svg>
