<svg width="67" height="65" viewBox="0 0 67 65" fill="none" xmlns="http://www.w3.org/2000/svg">
    <path d="M30.7053 24.1211C32.0346 24.1211 33.1439 25.0204 33.4021 26.2167C35.474 24.8612 37.9412 24.1211 40.4883 24.1211C43.8132 24.1211 47.0019 25.3821 49.3529 27.6268C51.704 29.8715 53.0248 32.916 53.0248 36.0905V48.0998C53.0248 49.5517 51.792 50.7287 50.2714 50.7287C48.7507 50.7287 47.5179 49.5517 47.5179 48.0998V36.0905C47.5179 34.3105 46.7773 32.6033 45.459 31.3447C44.1407 30.086 42.3527 29.3789 40.4883 29.3789C38.624 29.3789 36.836 30.086 35.5177 31.3447C34.1994 32.6033 33.4588 34.3105 33.4588 36.0905V48.0998C33.4588 49.5517 32.226 50.7287 30.7053 50.7287C29.1847 50.7287 27.9519 49.5517 27.9519 48.0998V26.75C27.9519 25.2981 29.1847 24.1211 30.7053 24.1211Z" fill="#143649"/>
    <path d="M22.2784 26.75C22.2784 25.2981 21.0456 24.1211 19.5249 24.1211C18.0043 24.1211 16.7715 25.2981 16.7715 26.75V48.0998C16.7715 49.5517 18.0043 50.7287 19.5249 50.7287C21.0456 50.7287 22.2784 49.5517 22.2784 48.0998V26.75Z" fill="#143649"/>
    <path d="M23.7175 16.075C23.7175 18.2859 21.8403 20.0781 19.5248 20.0781C17.2092 20.0781 15.3321 18.2859 15.3321 16.075C15.3321 13.8642 17.2092 12.0719 19.5248 12.0719C21.8403 12.0719 23.7175 13.8642 23.7175 16.075Z" fill="#143649"/>
    <path fill-rule="evenodd" clip-rule="evenodd" d="M0 5.39919C0 2.47339 2.48418 0.101562 5.54857 0.101562H61.4514C64.5158 0.101562 67 2.47339 67 5.39919V58.7738C67 61.6996 64.5158 64.0714 61.4514 64.0714H5.54857C2.48418 64.0714 0 61.6996 0 58.7738V5.39919ZM5.50774 5.38838C5.50774 5.38838 5.50685 5.39299 5.50685 5.39919V58.7738L5.50698 58.7784L5.50715 58.7806C5.50735 58.7826 5.50774 58.7846 5.50774 58.7846L5.509 58.7885C5.51027 58.7913 5.51329 58.7964 5.51907 58.8019C5.52484 58.8074 5.53018 58.8103 5.53317 58.8116L5.53724 58.8128C5.53724 58.8128 5.54207 58.8136 5.54857 58.8136H61.4514C61.4579 58.8136 61.4628 58.8128 61.4628 58.8128L61.4656 58.812L61.4668 58.8116C61.4698 58.8103 61.4752 58.8074 61.4809 58.8019L61.4833 58.7996L61.4857 58.7968L61.4883 58.7933C61.4896 58.7914 61.491 58.7885 61.491 58.7885L61.492 58.7857L61.4923 58.7846C61.4923 58.7846 61.4932 58.78 61.4932 58.7738V5.39919C61.4932 5.39672 61.4929 5.3931 61.4929 5.3931C61.4927 5.39067 61.4923 5.38838 61.4923 5.38838L61.491 5.38449C61.4897 5.38163 61.4867 5.37654 61.4809 5.37102C61.4752 5.36551 61.4698 5.36262 61.4668 5.36141L61.4655 5.36091L61.4628 5.36021C61.4628 5.36021 61.4579 5.35936 61.4514 5.35936H5.54857C5.54207 5.35936 5.53724 5.36021 5.53724 5.36021L5.53493 5.36078L5.53317 5.36141C5.53018 5.36262 5.52484 5.36551 5.51907 5.37102C5.51329 5.37654 5.51027 5.38163 5.509 5.38449L5.5084 5.386L5.50774 5.38838Z" fill="#143649"/>
</svg>
