<svg width="78" height="55" viewBox="0 0 78 55" fill="none" xmlns="http://www.w3.org/2000/svg">
    <path d="M7.85781 0.890774H70.144C72.3054 0.890774 74.2717 1.74334 75.6938 3.11533L75.7754 3.2019C77.1492 4.56668 78 6.42794 78 8.46749V46.782C78 48.8472 77.1295 50.7275 75.7291 52.0954C74.3267 53.4655 72.3822 54.3272 70.2425 54.3527L7.85882 54.358C5.69602 54.358 3.73049 53.5061 2.30696 52.1334C0.884827 50.7621 0 48.8661 0 46.7812V8.46669C0 6.38248 0.884148 4.48581 2.30696 3.11447L2.39674 3.03578C3.81206 1.71101 5.74087 0.890625 7.85875 0.890625L7.85781 0.890774ZM75.0261 47.4454L50.1422 29.4122L39.8732 36.838C39.3434 37.221 38.6293 37.2033 38.1253 36.838L27.9453 29.4955L2.97437 47.4515C3.12876 48.4923 3.63681 49.4269 4.37474 50.1391C5.26977 51.0021 6.50289 51.5373 7.85834 51.5373H70.2264C71.5587 51.5229 72.7713 50.9811 73.6501 50.1227C74.3764 49.4117 74.8763 48.4811 75.0273 47.4456L75.0261 47.4454ZM52.5693 27.656L75.0731 43.9659V11.3815L52.5693 27.656ZM2.92353 43.9711L25.5039 27.7334L2.92353 11.4459V43.9711ZM2.95141 7.95834L38.9975 33.9597L75.0383 7.89621C74.907 6.84558 74.4167 5.89596 73.6923 5.16999L73.6243 5.109C72.7306 4.24725 71.4976 3.71078 70.1428 3.71078H7.8566C6.53241 3.71078 5.32452 4.22037 4.43621 5.04342L4.37295 5.109C3.59694 5.8573 3.07394 6.85474 2.95082 7.9598L2.95141 7.95834Z" fill="#292929"/>
</svg>
