<svg width="1096" height="1231" viewBox="0 0 1096 1231" fill="none" xmlns="http://www.w3.org/2000/svg">
    <path d="M590.827 0.0309712C614.409 0.572466 639.255 8.38183 657.153 23.8144C688.968 51.2487 720.742 79.7533 719.642 117.07C718.543 154.386 697.744 175.281 697.744 175.281C697.744 175.281 683.479 186.212 697.744 197.186C712.004 208.164 880.932 315.743 872.157 537.435C872.157 537.435 867.763 595.129 874.348 656.589C879.076 700.742 863.563 754.273 854.403 781.065C854.175 781.323 849.908 792.335 859.567 785.913C905.36 757.285 942.749 714.258 974.07 660.815C1002.81 608.603 1019.2 548.269 1019.2 484.08C1019.2 347.738 945.194 228.982 836.184 167.852C985.743 209.103 1096 349.214 1096 515.606C1096 528.326 1095.38 540.933 1094.12 553.316C1092.9 582.006 1089.74 627.788 1081.69 646.106C1069.62 673.544 1070.74 732.77 1070.74 742.648C1070.74 752.522 1067.44 1077.34 875.443 1076.25C875.443 1076.25 783.933 1078.52 783.312 1041.2C782.762 1008.27 792.155 1004.81 800.833 985.728C809.058 967.626 815.076 966.518 810.687 908.358C810.687 908.358 810.463 896.585 806.073 896.306C801.683 896.027 748.176 1055.43 679.055 1138.84C609.939 1222.25 540.805 1231 488.144 1231C488.144 1231 389.437 1231.02 389.437 1181.64C389.437 1132.24 434.413 1151.98 434.413 995.044C434.413 838.104 358.725 845.849 349.941 884.257C341.161 922.67 333.481 953.374 348.846 1056.54C364.206 1159.7 322.486 1171.78 284.085 1171.78C245.685 1171.78 43.8035 1178.31 8.69754 601.047C8.69754 601.047 4.33736 507.792 35.0535 427.676C35.0535 427.676 21.8797 581.325 117.331 663.637C212.782 745.948 267.655 733.891 267.655 733.891C267.655 733.891 313.689 730.558 332.335 753.605C350.986 776.652 347.746 793.138 387.233 781.069C426.733 768.995 426.898 759.151 463.1 763.542C499.301 767.933 521.102 772.282 535.367 742.652C549.636 713.023 565.58 693.922 595.196 688.435C624.821 682.948 754.981 621.007 751.466 446.37C748.176 283.943 674.661 227.937 674.661 227.937C674.661 227.937 662.562 214.784 650.496 220.271C638.426 225.758 618.71 226.883 595.67 206.032C572.63 185.18 557.269 168.664 515.579 154.395C515.579 154.395 487.028 149.991 488.127 121.457C489.227 92.9226 512.314 30.4266 541.943 11.7704C554.905 3.60145 572.49 -0.396302 590.827 0.0309712ZM491.265 785.515C484.643 785.27 475.081 789.657 464.986 793.498C450.302 799.078 416.723 796.442 403.583 795.529C390.452 794.619 381.647 800.195 392.169 812.662C406.666 829.854 424.01 829.22 445.9 830.734C467.79 832.249 491.265 810.783 491.265 810.783C492.509 808.668 503.166 797.31 498.227 789.267C496.683 786.759 494.277 785.629 491.265 785.515ZM603.362 435.359C578.005 404.24 563.867 400.238 541.926 400.238C519.981 400.238 489.536 414.312 480.485 448.528C470.615 485.84 465.595 491.56 501.162 533.204C526.672 563.084 572.646 628.511 618.727 586.808C664.803 545.104 647.692 489.758 603.362 435.359ZM191.26 493.464C206.121 456.172 218.411 448.109 239.341 441.527C260.271 434.94 293.529 439.234 312.429 469.155C333.037 501.785 340.172 504.869 318.739 555.27C303.361 591.427 278.49 668.506 222.027 642.552C165.564 616.594 165.289 558.663 191.26 493.464ZM434.32 738.388C422.585 720.003 395.218 713.759 379.355 713.268C358.598 712.629 358.894 694.717 358.894 694.717C358.894 694.717 357.427 676.434 432.388 669.145C507.264 661.86 509.311 681.189 509.311 681.189C509.311 681.189 512.847 698.749 492.551 703.136C477.089 706.482 451.469 717.786 443.142 737.842C441.506 742.707 436.875 742.805 434.32 738.388ZM80.7364 288.216C93.3349 292.332 113.085 291.232 133.676 267.956C154.268 244.681 167.712 226.617 207.568 207.817C207.568 207.817 235.429 200.295 231.179 172.057C226.929 143.819 197.105 84.2037 165.598 68.9404C134.091 53.6812 81.024 62.912 52.4393 93.7053C23.8589 124.499 -4.5988 156.383 0.624163 193.344C5.8429 230.306 28.8705 248.721 28.8705 248.721L28.4687 248.784C39.4348 263.053 80.7364 288.216 80.7364 288.216Z" fill="#9AADA8" fill-opacity="0.25"/>
</svg>
