<svg width="51" height="50" viewBox="0 0 51 50" fill="none" xmlns="http://www.w3.org/2000/svg">
    <mask id="path-1-inside-1_704_280" fill="white">
        <path d="M23.4236 23.9909V24.5677H27.9455V23.9909H25.9637V23.0978H27.7129V22.5397H25.9637V21.7396H25.3031V22.5397H23.6562V23.0978H25.3031V23.9909H23.4236ZM26.8197 25.898V27.219H24.5122V25.898H26.8197ZM27.4709 27.7679V25.3491H23.8795V28.2889H24.5122V27.7679H27.4709ZM29.1178 20.9023H22.363V23.8886C22.363 25.3212 22.2699 27.219 21.293 28.568C21.4511 28.6424 21.7303 28.875 21.8419 29.0145C22.8933 27.5725 23.0422 25.4236 23.0422 23.8886V21.5535H28.4293V28.0749C28.4293 28.2424 28.3735 28.2982 28.1967 28.2982C28.0385 28.3075 27.4616 28.3168 26.8662 28.2982C26.9592 28.4749 27.0709 28.7633 27.0988 28.9494C27.9269 28.9494 28.42 28.9401 28.7084 28.8284C28.9968 28.7075 29.1178 28.5214 29.1178 28.0749V20.9023Z"/>
    </mask>
    <path d="M23.4236 23.9909V24.5677H27.9455V23.9909H25.9637V23.0978H27.7129V22.5397H25.9637V21.7396H25.3031V22.5397H23.6562V23.0978H25.3031V23.9909H23.4236ZM26.8197 25.898V27.219H24.5122V25.898H26.8197ZM27.4709 27.7679V25.3491H23.8795V28.2889H24.5122V27.7679H27.4709ZM29.1178 20.9023H22.363V23.8886C22.363 25.3212 22.2699 27.219 21.293 28.568C21.4511 28.6424 21.7303 28.875 21.8419 29.0145C22.8933 27.5725 23.0422 25.4236 23.0422 23.8886V21.5535H28.4293V28.0749C28.4293 28.2424 28.3735 28.2982 28.1967 28.2982C28.0385 28.3075 27.4616 28.3168 26.8662 28.2982C26.9592 28.4749 27.0709 28.7633 27.0988 28.9494C27.9269 28.9494 28.42 28.9401 28.7084 28.8284C28.9968 28.7075 29.1178 28.5214 29.1178 28.0749V20.9023Z" fill="#DED2CC"/>
    <path d="M23.4236 23.9909V22.9909H22.4236V23.9909H23.4236ZM23.4236 24.5677H22.4236V25.5677H23.4236V24.5677ZM27.9455 24.5677V25.5677H28.9455V24.5677H27.9455ZM27.9455 23.9909H28.9455V22.9909H27.9455V23.9909ZM25.9637 23.9909H24.9637V24.9909H25.9637V23.9909ZM25.9637 23.0978V22.0978H24.9637V23.0978H25.9637ZM27.7129 23.0978V24.0978H28.7129V23.0978H27.7129ZM27.7129 22.5397H28.7129V21.5397H27.7129V22.5397ZM25.9637 22.5397H24.9637V23.5397H25.9637V22.5397ZM25.9637 21.7396H26.9637V20.7396H25.9637V21.7396ZM25.3031 21.7396V20.7396H24.3031V21.7396H25.3031ZM25.3031 22.5397V23.5397H26.3031V22.5397H25.3031ZM23.6562 22.5397V21.5397H22.6562V22.5397H23.6562ZM23.6562 23.0978H22.6562V24.0978H23.6562V23.0978ZM25.3031 23.0978H26.3031V22.0978H25.3031V23.0978ZM25.3031 23.9909V24.9909H26.3031V23.9909H25.3031ZM26.8197 25.898H27.8197V24.898H26.8197V25.898ZM26.8197 27.219V28.219H27.8197V27.219H26.8197ZM24.5122 27.219H23.5122V28.219H24.5122V27.219ZM24.5122 25.898V24.898H23.5122V25.898H24.5122ZM27.4709 27.7679V28.7679H28.4709V27.7679H27.4709ZM27.4709 25.3491H28.4709V24.3491H27.4709V25.3491ZM23.8795 25.3491V24.3491H22.8795V25.3491H23.8795ZM23.8795 28.2889H22.8795V29.2889H23.8795V28.2889ZM24.5122 28.2889V29.2889H25.5122V28.2889H24.5122ZM24.5122 27.7679V26.7679H23.5122V27.7679H24.5122ZM29.1178 20.9023H30.1178V19.9023H29.1178V20.9023ZM22.363 20.9023V19.9023H21.363V20.9023H22.363ZM21.293 28.568L20.4831 27.9814L19.7751 28.9589L20.8672 29.4728L21.293 28.568ZM21.8419 29.0145L21.0611 29.6392L21.8788 30.6613L22.6499 29.6037L21.8419 29.0145ZM23.0422 21.5535V20.5535H22.0422V21.5535H23.0422ZM28.4293 21.5535H29.4293V20.5535H28.4293V21.5535ZM28.1967 28.2982V27.2982H28.1673L28.138 27.2999L28.1967 28.2982ZM26.8662 28.2982L26.8974 27.2987L25.1817 27.2451L25.9813 28.764L26.8662 28.2982ZM27.0988 28.9494L26.1098 29.0977L26.2376 29.9494H27.0988V28.9494ZM28.7084 28.8284L29.0694 29.761L29.0823 29.756L29.0951 29.7507L28.7084 28.8284ZM22.4236 23.9909V24.5677H24.4236V23.9909H22.4236ZM23.4236 25.5677H27.9455V23.5677H23.4236V25.5677ZM28.9455 24.5677V23.9909H26.9455V24.5677H28.9455ZM27.9455 22.9909H25.9637V24.9909H27.9455V22.9909ZM26.9637 23.9909V23.0978H24.9637V23.9909H26.9637ZM25.9637 24.0978H27.7129V22.0978H25.9637V24.0978ZM28.7129 23.0978V22.5397H26.7129V23.0978H28.7129ZM27.7129 21.5397H25.9637V23.5397H27.7129V21.5397ZM26.9637 22.5397V21.7396H24.9637V22.5397H26.9637ZM25.9637 20.7396H25.3031V22.7396H25.9637V20.7396ZM24.3031 21.7396V22.5397H26.3031V21.7396H24.3031ZM25.3031 21.5397H23.6562V23.5397H25.3031V21.5397ZM22.6562 22.5397V23.0978H24.6562V22.5397H22.6562ZM23.6562 24.0978H25.3031V22.0978H23.6562V24.0978ZM24.3031 23.0978V23.9909H26.3031V23.0978H24.3031ZM25.3031 22.9909H23.4236V24.9909H25.3031V22.9909ZM25.8197 25.898V27.219H27.8197V25.898H25.8197ZM26.8197 26.219H24.5122V28.219H26.8197V26.219ZM25.5122 27.219V25.898H23.5122V27.219H25.5122ZM24.5122 26.898H26.8197V24.898H24.5122V26.898ZM28.4709 27.7679V25.3491H26.4709V27.7679H28.4709ZM27.4709 24.3491H23.8795V26.3491H27.4709V24.3491ZM22.8795 25.3491V28.2889H24.8795V25.3491H22.8795ZM23.8795 29.2889H24.5122V27.2889H23.8795V29.2889ZM25.5122 28.2889V27.7679H23.5122V28.2889H25.5122ZM24.5122 28.7679H27.4709V26.7679H24.5122V28.7679ZM29.1178 19.9023H22.363V21.9023H29.1178V19.9023ZM21.363 20.9023V23.8886H23.363V20.9023H21.363ZM21.363 23.8886C21.363 25.3453 21.2473 26.9262 20.4831 27.9814L22.1029 29.1545C23.2925 27.5119 23.363 25.2972 23.363 23.8886H21.363ZM20.8672 29.4728C20.8381 29.4591 20.8354 29.4545 20.8636 29.4738C20.8866 29.4896 20.917 29.5124 20.9508 29.54C20.9843 29.5675 21.0148 29.5947 21.0386 29.6175C21.0655 29.6434 21.0703 29.6508 21.0611 29.6392L22.6227 28.3898C22.5041 28.2415 22.346 28.0977 22.219 27.9936C22.098 27.8943 21.912 27.7541 21.7187 27.6631L20.8672 29.4728ZM22.6499 29.6037C23.9126 27.8719 24.0422 25.414 24.0422 23.8886H22.0422C22.0422 25.4331 21.874 27.2731 21.0339 28.4253L22.6499 29.6037ZM24.0422 23.8886V21.5535H22.0422V23.8886H24.0422ZM23.0422 22.5535H28.4293V20.5535H23.0422V22.5535ZM27.4293 21.5535V28.0749H29.4293V21.5535H27.4293ZM27.4293 28.0749C27.4293 28.0699 27.4287 28.005 27.4543 27.9128C27.483 27.8093 27.5476 27.6626 27.6839 27.5307C27.8184 27.4005 27.9623 27.3434 28.0552 27.3192C28.1394 27.2973 28.1965 27.2982 28.1967 27.2982V29.2982C28.3294 29.2982 28.7401 29.2917 29.0746 28.968C29.4196 28.6342 29.4293 28.2131 29.4293 28.0749H27.4293ZM28.138 27.2999C28.0204 27.3068 27.4759 27.3167 26.8974 27.2987L26.8349 29.2977C27.4474 29.3168 28.0566 29.3081 28.2554 29.2964L28.138 27.2999ZM25.9813 28.764C26.0039 28.807 26.0377 28.8817 26.0679 28.9643C26.0824 29.0039 26.0937 29.0387 26.1016 29.0664C26.1101 29.0965 26.1111 29.106 26.1098 29.0977L28.0877 28.801C28.037 28.4627 27.8724 28.0629 27.7511 27.8324L25.9813 28.764ZM27.0988 29.9494C27.508 29.9494 27.869 29.9474 28.1678 29.9289C28.4533 29.9112 28.7759 29.8746 29.0694 29.761L28.3475 27.8959C28.3525 27.8939 28.2843 27.9178 28.0441 27.9327C27.8172 27.9467 27.5176 27.9494 27.0988 27.9494V29.9494ZM29.0951 29.7507C29.3693 29.6357 29.6827 29.4364 29.8921 29.0653C30.0823 28.7284 30.1178 28.3675 30.1178 28.0749H28.1178C28.1178 28.1085 28.1166 28.1331 28.1153 28.1502C28.1139 28.1674 28.1124 28.1748 28.1125 28.1746C28.1127 28.1735 28.1201 28.1359 28.1504 28.0822C28.1829 28.0247 28.2262 27.976 28.2702 27.9409C28.3094 27.9096 28.3344 27.9009 28.3217 27.9062L29.0951 29.7507ZM30.1178 28.0749V20.9023H28.1178V28.0749H30.1178Z" fill="#DED2CC" mask="url(#path-1-inside-1_704_280)"/>
    <path d="M28.8374 1L1 49H49.3902L21.6179 1M16.2195 49L25.2211 33.3252L34.3008 49" stroke="#DED2CC"/>
</svg>
