<svg width="56" height="63" viewBox="0 0 56 63" fill="none" xmlns="http://www.w3.org/2000/svg">
    <path fill-rule="evenodd" clip-rule="evenodd" d="M54.774 6.86446C53.3241 6.86446 51.9163 7.34317 50.7822 8.22237V1.19316C50.7822 0.534177 50.2333 0 49.5568 0H39.4432C38.7661 0 38.2172 0.534177 38.2172 1.19316V19.2291C38.2206 20.0262 38.5176 20.7956 39.0545 21.398C38.5176 21.9998 38.2207 22.7692 38.2172 23.5664V39.4339C38.2206 40.231 38.5176 41.0004 39.0545 41.6023C38.5176 42.2047 38.2207 42.9741 38.2172 43.7712V44.1428C37.083 43.2636 35.6758 42.7849 34.2254 42.7854C33.5483 42.7854 33 43.3191 33 43.9781V49.2206C33.0017 50.6761 33.5232 52.0856 34.475 53.2078C35.4268 54.3305 36.7496 55.0966 38.2172 55.3745V61.8068C38.2172 62.4658 38.766 63 39.4431 63H49.5567C50.2333 63 50.7821 62.4658 50.7821 61.8068V43.7709C50.7787 42.9738 50.4818 42.2044 49.9449 41.602C50.4818 41.0002 50.7787 40.2308 50.7821 39.4336V23.5661C50.7787 22.769 50.4818 21.9996 49.9449 21.3977C50.4236 20.853 50.7092 20.1723 50.7582 19.4573C52.231 19.1839 53.56 18.4195 54.5164 17.2962C55.4728 16.1723 55.9977 14.7595 56 13.3V8.05694C56 7.39851 55.4511 6.86446 54.774 6.86446ZM40.6684 2.38578H48.3308V19.2289C48.3308 19.7675 47.8823 20.2041 47.3288 20.2046H41.6716C41.1182 20.2041 40.6691 19.7675 40.6685 19.2289L40.6684 2.38578ZM48.3308 23.5657V39.4333C48.3308 39.9719 47.8823 40.4084 47.3288 40.409H41.6716C41.1182 40.4084 40.6691 39.9719 40.6685 39.4333V23.5657C40.6691 23.0271 41.1182 22.5905 41.6716 22.59H47.3288C47.8823 22.5906 48.3308 23.0271 48.3308 23.5657ZM35.4507 49.2202V45.3578C36.2543 45.6108 36.9542 46.105 37.4512 46.7696C37.9482 47.4335 38.2166 48.2339 38.2172 49.0561V52.9185C37.4141 52.6656 36.7136 52.1713 36.2172 51.5068C35.7203 50.8428 35.4518 50.0424 35.4507 49.2202ZM48.3308 60.6138H40.6684V43.7707C40.669 43.232 41.1181 42.7955 41.6715 42.7949H47.3287C47.8821 42.7955 48.3307 43.232 48.3307 43.7707L48.3308 60.6138ZM53.5487 13.3008C53.5476 14.1223 53.2797 14.9228 52.7827 15.5874C52.2857 16.2513 51.5852 16.7456 50.7822 16.9991V13.1361C50.7833 12.3146 51.0512 11.5142 51.5482 10.8496C52.0452 10.1856 52.7456 9.69137 53.5487 9.43786V13.3008Z" fill="#DED2CC"/>
    <path d="M17 23C17 21.8954 16.1046 21 15 21C13.8954 21 13 21.8954 13 23V32C13 33.1046 13.8954 34 15 34C16.1046 34 17 33.1046 17 32V23Z" fill="#DED2CC"/>
    <path fill-rule="evenodd" clip-rule="evenodd" d="M0 24.5C0 16.4919 6.49187 10 14.5 10C22.5081 10 29 16.4919 29 24.5V39.5C29 47.5081 22.5081 54 14.5 54C6.49187 54 0 47.5081 0 39.5V24.5ZM14.5 14C8.70101 14 4 18.701 4 24.5V39.5C4 45.299 8.70101 50 14.5 50C20.299 50 25 45.299 25 39.5V24.5C25 18.701 20.299 14 14.5 14Z" fill="#DED2CC"/>
</svg>
