<svg width="696" height="700" viewBox="0 0 696 700" fill="none" xmlns="http://www.w3.org/2000/svg">
    <path fill-rule="evenodd" clip-rule="evenodd" d="M329.797 12.6468C399.078 16.1554 480.002 -5.54269 531.758 40.6453C583.805 87.0916 555.786 175.025 583.492 239.045C610.346 301.099 679.495 339.953 690.183 406.719C702.36 482.793 696.883 571.048 645.878 628.789C594.918 686.48 508.095 699.116 431.124 699.992C364.839 700.746 312.35 649.422 248.047 633.318C179.82 616.23 88.2769 657.218 43.5638 602.926C-1.46631 548.249 59.1383 465.329 51.6869 394.889C44.6556 328.421 -9.52228 270.89 1.46541 204.959C13.6053 132.115 50.5252 56.8253 114.248 19.5015C177.559 -17.5816 256.519 8.93585 329.797 12.6468Z" fill="url(#paint0_radial_1496_472)" fill-opacity="0.8"/>
    <path fill-rule="evenodd" clip-rule="evenodd" d="M383.1 563.701C383.3 567.201 386.8 565.601 388.4 564.501C389.9 563.401 390.4 564.301 390.5 562.201C390.6 560.801 390.7 559.501 390.7 558.101C388.4 557.901 385.9 558.401 384 559.801C383.1 560.501 381.2 562.801 383.1 563.701Z" fill="#F6D2A2"/>
    <path d="M385 566.201C384.3 566.201 383 565.901 382.8 563.901C382.2 563.501 382 563.001 382 562.701C381.9 561.501 383.2 560.101 383.9 559.601C385.5 558.401 387.6 557.801 389.8 557.801H391.1V558.101C391.2 559.201 391.1 560.301 391 561.301C391 561.601 391 561.901 390.9 562.201C390.8 563.701 390.5 563.901 389.8 564.201C389.5 564.301 389.2 564.401 388.7 564.801C388.2 565.101 386.5 566.201 385 566.201ZM389.8 558.401C387.7 558.401 385.8 559.001 384.3 560.101C383.6 560.601 382.6 561.801 382.7 562.601C382.7 562.901 382.9 563.201 383.3 563.401L383.5 563.501V563.701C383.6 565.301 384.4 565.501 385 565.501C386 565.501 387.4 564.801 388.3 564.201C388.9 563.801 389.3 563.701 389.6 563.601C390.1 563.401 390.2 563.401 390.3 562.201C390.3 561.901 390.3 561.601 390.4 561.301C390.5 560.401 390.5 559.401 390.5 558.501C390.2 558.401 390 558.401 389.8 558.401Z" fill="black"/>
    <path fill-rule="evenodd" clip-rule="evenodd" d="M383.1 563.7C383.6 563.5 384.2 563.4 384.5 562.9L383.1 563.7Z" fill="#C6B198"/>
    <path d="M383.101 564C383.001 564 382.801 563.9 382.801 563.8C382.701 563.6 382.801 563.4 383.001 563.4C383.101 563.4 383.201 563.3 383.201 563.3C383.601 563.1 384.001 563 384.201 562.7C384.301 562.6 384.501 562.5 384.701 562.6C384.801 562.7 384.901 562.9 384.801 563.1C384.401 563.6 383.901 563.8 383.501 563.9L383.301 564H383.101Z" fill="black"/>
    <path fill-rule="evenodd" clip-rule="evenodd" d="M391.3 521.399C377.7 517.599 387.8 500.299 398.7 507.399L391.3 521.399Z" fill="#6AD7E5"/>
    <path d="M391.499 521.8L391.199 521.7C384.199 519.7 384.299 514.7 384.499 513.2C384.999 509.4 388.599 505.4 393.399 505.4C395.299 505.4 397.099 506 398.899 507.2L399.199 507.4L391.499 521.8ZM393.399 506.1C388.899 506.1 385.599 509.8 385.099 513.3C384.599 516.9 386.799 519.7 391.099 521L398.199 507.5C396.699 506.6 395.099 506.1 393.399 506.1Z" fill="black"/>
    <path fill-rule="evenodd" clip-rule="evenodd" d="M451.6 506.101C462.3 498.601 472.1 515.601 459.6 519.901L451.6 506.101Z" fill="#6AD7E5"/>
    <path d="M459.499 520.301L451.199 506.001L451.499 505.801C453.399 504.501 455.299 503.801 457.199 503.801C461.799 503.801 465.099 507.601 465.799 511.301C466.099 512.801 466.399 517.901 459.799 520.101L459.499 520.301ZM452.099 506.301L459.799 519.601C463.699 518.201 465.699 515.201 465.099 511.601C464.499 508.201 461.399 504.701 457.199 504.701C455.499 504.601 453.799 505.101 452.099 506.301Z" fill="black"/>
    <path fill-rule="evenodd" clip-rule="evenodd" d="M454 607.301C456.7 609.001 461.7 614.101 457.6 616.601C453.7 620.201 451.5 612.601 448 611.601C449.5 609.601 451.4 607.701 454 607.301Z" fill="#F6D2A2"/>
    <path d="M455.5 617.9C453.9 617.9 452.5 616.3 451.3 614.8C450.2 613.6 449.1 612.3 447.9 611.9L447.4 611.8L447.7 611.4C448.9 609.7 450.9 607.5 453.9 607H454L454.1 607.1C455.8 608.2 459.5 611.3 459.4 614.2C459.4 615.3 458.8 616.2 457.7 616.9C457 617.6 456.3 617.9 455.5 617.9ZM448.5 611.4C449.7 611.9 450.7 613.2 451.7 614.3C452.9 615.8 454.1 617.1 455.4 617.1C456 617.1 456.6 616.8 457.2 616.2H457.3C458.2 615.6 458.7 614.9 458.7 614C458.7 611.7 455.8 608.8 453.8 607.5C452 608 450.2 609.2 448.5 611.4ZM457.6 616.9C457.5 616.9 457.4 616.8 457.3 616.7C457.1 616.3 456.9 615.8 456.8 615.4C456.5 614.6 456.2 613.8 455.6 613.2C455.5 613.1 455.5 612.9 455.6 612.7C455.7 612.6 455.9 612.6 456.1 612.7C456.8 613.4 457.2 614.3 457.5 615.2L458 616.4C458.1 616.6 458 616.8 457.9 616.9H457.6Z" fill="black"/>
    <path fill-rule="evenodd" clip-rule="evenodd" d="M405.2 613.099C402 613.599 400.2 616.499 397.5 617.999C395 619.499 394 617.499 393.8 617.099C393.4 616.899 393.4 617.299 392.8 616.699C390.5 612.999 395.2 610.299 397.7 608.499C401.2 607.699 403.4 610.699 405.2 613.099Z" fill="#F6D2A2"/>
    <path d="M395.799 618.8C394.499 618.8 393.799 617.7 393.599 617.3H393.499C393.199 617.3 392.999 617.2 392.599 616.8V616.7C390.399 613.2 394.199 610.5 396.699 608.7L397.599 608.1H397.799C398.199 608 398.499 608 398.899 608C401.899 608 403.799 610.6 405.399 612.7L405.899 613.4L405.299 613.5C403.399 613.8 401.999 615 400.599 616.2C399.699 617 398.799 617.7 397.799 618.3C396.999 618.6 396.399 618.8 395.799 618.8ZM393.599 616.7C393.699 616.7 393.799 616.7 393.999 616.8H394.099L394.199 616.9C394.399 617.2 394.899 618.1 395.899 618.1C396.399 618.1 396.899 617.9 397.399 617.6C398.399 617.1 399.299 616.3 400.099 615.6C401.399 614.5 402.799 613.3 404.599 612.8C403.099 610.8 401.299 608.6 398.799 608.6C398.499 608.6 398.199 608.6 397.899 608.7L397.099 609.3C394.499 611.1 391.299 613.4 393.199 616.4C393.299 616.6 393.399 616.7 393.599 616.7ZM393.799 617.4C393.599 617.4 393.399 617.2 393.499 617C393.599 616 394.099 615.3 394.599 614.5C394.899 614.1 395.099 613.7 395.299 613.3C395.399 613.1 395.599 613.1 395.699 613.1C395.899 613.2 395.899 613.4 395.899 613.5C395.699 614 395.399 614.4 395.099 614.8C394.599 615.5 394.199 616.1 394.099 616.9C394.099 617.3 393.999 617.4 393.799 617.4Z" fill="black"/>
    <path fill-rule="evenodd" clip-rule="evenodd" d="M391.901 516.701C390.101 515.801 388.801 514.501 389.901 512.401C390.901 510.501 392.801 510.701 394.601 511.601L391.901 516.701ZM456.801 514.901C458.601 514.001 459.901 512.701 458.801 510.601C457.801 508.701 455.901 508.901 454.101 509.801L456.801 514.901Z" fill="black"/>
    <path fill-rule="evenodd" clip-rule="evenodd" d="M469.1 563.201C468.9 566.701 465.4 565.101 463.8 564.001C462.3 562.901 461.8 563.801 461.7 561.701C461.6 560.301 461.5 559.001 461.5 557.601C463.8 557.401 466.3 557.901 468.2 559.301C469.2 560.101 471 562.301 469.1 563.201Z" fill="#F6D2A2"/>
    <path d="M467.3 565.701C465.8 565.701 464.1 564.601 463.6 564.301C463.1 564.001 462.8 563.801 462.5 563.701C461.7 563.401 461.5 563.201 461.4 561.701C461.4 561.401 461.4 561.101 461.3 560.801C461.2 559.801 461.1 558.701 461.2 557.601V557.301H462.5C464.7 557.301 466.8 557.901 468.4 559.101C469.1 559.601 470.4 561.001 470.3 562.201C470.3 562.601 470.1 563.101 469.5 563.401C469.3 565.401 468 565.701 467.3 565.701ZM461.8 558.001C461.8 558.901 461.8 559.901 461.9 560.801C461.9 561.101 461.9 561.401 462 561.701C462.1 562.901 462.2 562.901 462.7 563.101C463 563.201 463.4 563.401 464 563.701C464.9 564.301 466.3 565.001 467.3 565.001C467.9 565.001 468.7 564.801 468.8 563.201V563.001L469 562.901C469.4 562.701 469.6 562.501 469.6 562.101C469.7 561.301 468.7 560.101 468 559.601C466.5 558.501 464.5 557.901 462.5 557.901C462.3 558.001 462.1 558.001 461.8 558.001Z" fill="black"/>
    <path fill-rule="evenodd" clip-rule="evenodd" d="M469.099 563.2C468.599 563 467.999 562.9 467.699 562.4L469.099 563.2Z" fill="#C6B198"/>
    <path d="M469.099 563.6H468.999L468.799 563.5C468.299 563.3 467.799 563.2 467.499 562.7C467.399 562.6 467.399 562.3 467.599 562.2C467.699 562.1 467.999 562.1 468.099 562.3C468.299 562.6 468.699 562.7 469.099 562.9C469.199 562.9 469.299 563 469.299 563C469.499 563.1 469.599 563.3 469.499 563.4C469.399 563.5 469.199 563.6 469.099 563.6Z" fill="black"/>
    <path fill-rule="evenodd" clip-rule="evenodd" d="M424.801 499C438.401 499 451.101 500.9 457.801 514C463.801 528.6 461.601 544.4 462.601 559.9C463.401 573.2 465.101 588.5 459.001 600.8C452.501 613.7 436.301 617 423.001 616.5C412.501 616.1 399.901 612.7 393.901 603.1C387.001 591.9 390.201 575.2 390.701 562.7C391.301 547.9 386.701 533 391.601 518.6C396.501 503.5 410.101 500.1 424.801 499Z" fill="#6AD7E5"/>
    <path d="M425.3 616.901H422.8C418.7 616.801 412.5 616.101 406.4 613.601C400.5 611.201 396.2 607.801 393.4 603.301C387.8 594.201 388.8 581.701 389.7 570.601C389.9 567.801 390.1 565.201 390.2 562.701C390.4 557.501 390 552.101 389.5 547.001C388.7 537.601 387.9 527.901 391 518.501C393.4 511.501 397.7 506.501 404.2 503.301C409.3 500.801 415.6 499.401 424.6 498.701C438 498.601 451.3 500.501 458 513.801C462.4 524.501 462.4 536.001 462.5 547.101C462.5 551.301 462.5 555.601 462.8 559.801C462.9 561.101 463 562.401 463 563.701C463.8 575.901 464.7 589.701 459.1 600.901C456.3 606.601 451.4 610.801 444.7 613.501C439.3 615.701 432.5 616.901 425.3 616.901ZM424.8 499.301C410.7 500.401 396.9 503.501 391.8 518.701C388.7 528.001 389.5 537.601 390.3 546.901C390.7 552.101 391.2 557.401 391 562.701C390.9 565.201 390.7 567.801 390.5 570.601C389.6 581.601 388.6 594.001 394.1 602.901C396.4 606.601 403.8 615.401 422.9 616.101H425.4C447.5 616.101 455.7 606.301 458.7 600.501C464.2 589.501 463.3 575.701 462.6 563.601C462.5 562.301 462.4 561.001 462.4 559.701C462.2 555.501 462.1 551.201 462.1 547.001C462 536.001 462 524.501 457.7 513.901C454.7 508.001 450.2 504.001 444 501.701C437.6 499.601 430.4 499.301 424.8 499.301Z" fill="black"/>
    <path fill-rule="evenodd" clip-rule="evenodd" d="M427.199 517.2C429.599 531.4 452.799 527.6 449.499 513.299C446.499 500.499 426.399 504.1 427.199 517.2Z" fill="white"/>
    <path d="M438.2 526.5C433.7 526.5 428 524.1 426.8 517.3C426.6 514.1 427.6 511.2 429.7 509C432 506.5 435.5 505.1 439.1 505.1C443.3 505.1 448.3 507.3 449.7 513.4C450.5 516.8 449.9 519.8 448 522.2C445.9 524.8 442.2 526.5 438.2 526.5ZM427.5 517.2C428 520 429.3 522.2 431.4 523.8C433.2 525.2 435.7 525.9 438.2 525.9C441.9 525.9 445.5 524.3 447.5 521.8C449.3 519.6 449.8 516.7 449.1 513.5C447.8 507.8 443.1 505.8 439.1 505.8C435.7 505.8 432.4 507.2 430.2 509.5C428.3 511.5 427.3 514.2 427.5 517.2Z" fill="black"/>
    <path fill-rule="evenodd" clip-rule="evenodd" d="M399.501 519.501C402.701 531.801 422.401 528.701 421.701 516.301C420.801 501.501 396.401 504.301 399.501 519.501Z" fill="white"/>
    <path d="M410 527.699C405.7 527.699 400.7 525.599 399.1 519.599C398.4 516.099 399.1 512.899 401.1 510.499C403.3 507.799 406.9 506.199 410.8 506.199C416 506.199 421.5 509.299 421.9 516.299C422.1 519.199 421.2 521.799 419.2 523.899C417.1 526.199 413.6 527.699 410 527.699ZM410.8 506.899C407.1 506.899 403.7 508.399 401.6 510.899C399.7 513.199 399.1 516.099 399.8 519.399C401.2 524.999 406 526.999 410 526.999C413.4 526.999 416.7 525.699 418.8 523.399C420.6 521.499 421.5 518.999 421.3 516.299C421.1 511.999 418.2 506.899 410.8 506.899Z" fill="black"/>
    <path fill-rule="evenodd" clip-rule="evenodd" d="M430.001 534.2C430.001 536 430.401 538.1 430.101 540.1C429.601 541 428.701 541.1 427.901 541.4C426.801 541.2 425.901 540.5 425.401 539.5C425.101 537.3 425.501 535.1 425.601 532.9L430.001 534.2Z" fill="white"/>
    <path d="M427.9 541.8C426.6 541.6 425.6 540.8 425.1 539.7C424.9 538.1 425 536.6 425.1 535.1C425.2 534.4 425.2 533.7 425.2 533V532.6L430.3 534.2V534.4C430.3 535 430.4 535.6 430.4 536.3C430.5 537.6 430.6 539 430.4 540.3V540.4C430 541.2 429.3 541.4 428.6 541.7C428.4 541.6 428.2 541.7 427.9 541.8ZM425.7 539.4C426.1 540.3 426.9 540.9 427.8 541.1C428 541 428.2 541 428.3 540.9C428.9 540.7 429.4 540.5 429.7 540C429.9 538.8 429.8 537.5 429.7 536.2C429.7 535.6 429.6 535 429.6 534.5L425.8 533.3C425.8 533.9 425.7 534.5 425.7 535C425.6 536.6 425.5 538 425.7 539.4Z" fill="black"/>
    <path fill-rule="evenodd" clip-rule="evenodd" d="M408.299 517.5C408.299 519.5 406.799 521.1 404.999 521.1C403.199 521.1 401.699 519.5 401.699 517.5C401.699 515.5 403.199 513.9 404.999 513.9C406.799 513.9 408.299 515.5 408.299 517.5Z" fill="black"/>
    <path fill-rule="evenodd" clip-rule="evenodd" d="M407.2 518.3C407.2 518.8 406.8 519.2 406.4 519.2C406 519.2 405.6 518.8 405.6 518.3C405.6 517.8 406 517.4 406.4 517.4C406.9 517.4 407.2 517.8 407.2 518.3Z" fill="white"/>
    <path fill-rule="evenodd" clip-rule="evenodd" d="M436.2 516.6C436.2 518.6 434.7 520.2 432.9 520.2C431.1 520.2 429.6 518.6 429.6 516.6C429.6 514.6 431.1 513 432.9 513C434.7 513 436.2 514.6 436.2 516.6Z" fill="black"/>
    <path fill-rule="evenodd" clip-rule="evenodd" d="M435.199 517.4C435.199 517.9 434.899 518.3 434.399 518.3C433.999 518.3 433.599 517.9 433.599 517.4C433.599 516.9 433.899 516.5 434.399 516.5C434.799 516.5 435.199 516.9 435.199 517.4ZM420.399 534C418.899 537.5 421.199 544.6 425.199 539.4C424.899 537.2 425.299 535 425.399 532.8L420.399 534Z" fill="white"/>
    <path d="M422.5 541.601C421.8 541.601 421.1 541.201 420.6 540.401C419.5 538.801 419.3 535.801 420.1 533.901L420.2 533.701L425.7 532.301V532.701L425.6 534.901C425.5 536.401 425.4 537.801 425.6 539.301V539.401L425.5 539.501C424.5 540.901 423.5 541.601 422.5 541.601ZM420.7 534.301C420.1 536.001 420.3 538.701 421.2 540.001C421.6 540.601 422 540.901 422.5 540.901C423.2 540.901 424 540.301 424.8 539.301C424.6 537.801 424.7 536.301 424.9 534.901L425 533.201L420.7 534.301Z" fill="black"/>
    <path fill-rule="evenodd" clip-rule="evenodd" d="M420.899 527.201C418.199 527.401 415.999 530.701 417.399 533.201C419.299 536.601 423.399 532.901 425.999 533.201C428.999 533.301 431.399 536.401 433.799 533.801C436.499 530.901 432.599 528.101 429.699 526.801L420.899 527.201Z" fill="#F6D2A2"/>
    <path d="M431.701 535.2C430.801 535.2 429.901 534.8 429.001 534.4C428.101 534 427.101 533.6 426.001 533.6H425.701C424.901 533.6 424.001 533.9 423.001 534.3C421.901 534.7 420.801 535 419.801 535C418.601 535 417.701 534.5 417.101 533.4C416.401 532.2 416.501 530.8 417.201 529.5C418.001 528 419.401 527.1 420.901 526.9L429.801 526.5H429.901C432.101 527.4 434.601 529.1 435.101 531.1C435.301 532.1 435.001 533.1 434.201 534C433.401 534.9 432.601 535.2 431.701 535.2ZM426.101 533C427.201 533 428.301 533.5 429.301 533.9C430.201 534.3 431.001 534.6 431.801 534.6C432.501 534.6 433.101 534.3 433.701 533.7C434.401 533 434.601 532.2 434.501 531.4C434.101 529.7 431.701 528.1 429.801 527.3L421.101 527.7C419.801 527.8 418.601 528.7 417.901 529.9C417.301 531 417.301 532.2 417.801 533.2C418.301 534.1 418.901 534.5 419.901 534.5C420.801 534.5 421.801 534.1 422.801 533.8C423.901 533.4 424.801 533.1 425.801 533.1C425.801 532.9 425.901 532.9 426.101 533Z" fill="#231F20"/>
    <path fill-rule="evenodd" clip-rule="evenodd" d="M420.601 527.099C420.401 522.399 429.401 521.799 430.401 525.699C431.501 529.699 421.001 530.599 420.601 527.099Z" fill="black"/>
    <path d="M476.391 278.249C472.169 278.269 468.139 278.628 464.591 279.256C454.141 281.102 452.245 284.966 452.245 292.093V301.504H476.938V304.641H442.977C435.801 304.641 429.517 308.954 427.551 317.162C425.283 326.567 425.183 332.437 427.551 342.258C429.306 349.569 433.498 354.777 440.675 354.777H449.166V343.495C449.166 335.344 456.217 328.155 464.592 328.155H489.257C496.123 328.155 501.603 322.501 501.603 315.607V292.094C501.603 285.401 495.957 280.374 489.257 279.257C485.013 278.551 480.612 278.23 476.391 278.249ZM463.037 285.818C465.587 285.818 467.671 287.935 467.671 290.539C467.671 293.132 465.588 295.229 463.037 295.229C460.477 295.229 458.404 293.132 458.404 290.539C458.403 287.935 460.477 285.818 463.037 285.818Z" fill="url(#paint1_linear_1496_472)"/>
    <path d="M504.681 304.64V315.606C504.681 324.106 497.473 331.261 489.255 331.261H464.59C457.834 331.261 452.244 337.044 452.244 343.81V367.325C452.244 374.016 458.062 377.953 464.59 379.872C472.406 382.169 479.902 382.585 489.255 379.872C495.471 378.071 501.601 374.449 501.601 367.325V357.913H476.937V354.775H513.949C521.125 354.775 523.801 349.77 526.297 342.256C528.875 334.521 528.764 327.082 526.297 317.16C524.523 310.015 521.136 304.639 513.949 304.639H504.681V304.64ZM490.808 364.187C493.369 364.187 495.442 366.284 495.442 368.879C495.442 371.481 493.368 373.598 490.808 373.598C488.258 373.598 486.175 371.481 486.175 368.879C486.175 366.284 488.258 364.187 490.808 364.187Z" fill="url(#paint2_linear_1496_472)"/>
    <path opacity="0.444" d="M510.31 385.597C510.31 389.14 495.494 392.013 477.219 392.013C458.943 392.013 444.127 389.14 444.127 385.597C444.127 382.053 458.942 379.18 477.219 379.18C495.494 379.18 510.31 382.052 510.31 385.597Z" fill="url(#paint3_radial_1496_472)"/>
    <path d="M195.659 72.72C195.659 74.2133 195.299 75.6133 194.579 76.92C193.886 78.2267 192.779 79.28 191.259 80.08C189.766 80.88 187.872 81.28 185.579 81.28H180.899V92H175.299V64.08H185.579C187.739 64.08 189.579 64.4533 191.099 65.2C192.619 65.9467 193.752 66.9733 194.499 68.28C195.272 69.5867 195.659 71.0667 195.659 72.72ZM185.339 76.76C186.886 76.76 188.032 76.4133 188.779 75.72C189.526 75 189.899 74 189.899 72.72C189.899 70 188.379 68.64 185.339 68.64H180.899V76.76H185.339ZM207.235 73.28C207.955 72.1067 208.888 71.1867 210.035 70.52C211.208 69.8533 212.542 69.52 214.035 69.52V75.4H212.555C210.795 75.4 209.462 75.8133 208.555 76.64C207.675 77.4667 207.235 78.9067 207.235 80.96V92H201.635V69.84H207.235V73.28ZM229.647 92.36C227.514 92.36 225.594 91.8933 223.887 90.96C222.18 90 220.834 88.6533 219.847 86.92C218.887 85.1867 218.407 83.1867 218.407 80.92C218.407 78.6533 218.9 76.6533 219.887 74.92C220.9 73.1867 222.274 71.8533 224.007 70.92C225.74 69.96 227.674 69.48 229.807 69.48C231.94 69.48 233.874 69.96 235.607 70.92C237.34 71.8533 238.7 73.1867 239.687 74.92C240.7 76.6533 241.207 78.6533 241.207 80.92C241.207 83.1867 240.687 85.1867 239.647 86.92C238.634 88.6533 237.247 90 235.487 90.96C233.754 91.8933 231.807 92.36 229.647 92.36ZM229.647 87.48C230.66 87.48 231.607 87.24 232.487 86.76C233.394 86.2533 234.114 85.5067 234.647 84.52C235.18 83.5333 235.447 82.3333 235.447 80.92C235.447 78.8133 234.887 77.2 233.767 76.08C232.674 74.9333 231.327 74.36 229.727 74.36C228.127 74.36 226.78 74.9333 225.687 76.08C224.62 77.2 224.087 78.8133 224.087 80.92C224.087 83.0267 224.607 84.6533 225.647 85.8C226.714 86.92 228.047 87.48 229.647 87.48ZM255.995 69.48C257.648 69.48 259.101 69.8133 260.355 70.48C261.608 71.12 262.595 71.96 263.315 73V69.84H268.955V92.16C268.955 94.2133 268.541 96.04 267.715 97.64C266.888 99.2667 265.648 100.547 263.995 101.48C262.341 102.44 260.341 102.92 257.995 102.92C254.848 102.92 252.261 102.187 250.235 100.72C248.235 99.2533 247.101 97.2533 246.835 94.72H252.395C252.688 95.7333 253.315 96.5333 254.275 97.12C255.261 97.7333 256.448 98.04 257.835 98.04C259.461 98.04 260.781 97.5467 261.795 96.56C262.808 95.6 263.315 94.1333 263.315 92.16V88.72C262.595 89.76 261.595 90.6267 260.315 91.32C259.061 92.0133 257.621 92.36 255.995 92.36C254.128 92.36 252.421 91.88 250.875 90.92C249.328 89.96 248.101 88.6133 247.195 86.88C246.315 85.12 245.875 83.1067 245.875 80.84C245.875 78.6 246.315 76.6133 247.195 74.88C248.101 73.1467 249.315 71.8133 250.835 70.88C252.381 69.9467 254.101 69.48 255.995 69.48ZM263.315 80.92C263.315 79.56 263.048 78.4 262.515 77.44C261.981 76.4533 261.261 75.7067 260.355 75.2C259.448 74.6667 258.475 74.4 257.435 74.4C256.395 74.4 255.435 74.6533 254.555 75.16C253.675 75.6667 252.955 76.4133 252.395 77.4C251.861 78.36 251.595 79.5067 251.595 80.84C251.595 82.1733 251.861 83.3467 252.395 84.36C252.955 85.3467 253.675 86.1067 254.555 86.64C255.461 87.1733 256.421 87.44 257.435 87.44C258.475 87.44 259.448 87.1867 260.355 86.68C261.261 86.1467 261.981 85.4 262.515 84.44C263.048 83.4533 263.315 82.28 263.315 80.92ZM282.024 73.28C282.744 72.1067 283.677 71.1867 284.824 70.52C285.997 69.8533 287.331 69.52 288.824 69.52V75.4H287.344C285.584 75.4 284.251 75.8133 283.344 76.64C282.464 77.4667 282.024 78.9067 282.024 80.96V92H276.424V69.84H282.024V73.28ZM293.156 80.84C293.156 78.6 293.596 76.6133 294.476 74.88C295.383 73.1467 296.596 71.8133 298.116 70.88C299.663 69.9467 301.383 69.48 303.276 69.48C304.929 69.48 306.369 69.8133 307.596 70.48C308.849 71.1467 309.849 71.9867 310.596 73V69.84H316.236V92H310.596V88.76C309.876 89.8 308.876 90.6667 307.596 91.36C306.343 92.0267 304.889 92.36 303.236 92.36C301.369 92.36 299.663 91.88 298.116 90.92C296.596 89.96 295.383 88.6133 294.476 86.88C293.596 85.12 293.156 83.1067 293.156 80.84ZM310.596 80.92C310.596 79.56 310.329 78.4 309.796 77.44C309.263 76.4533 308.543 75.7067 307.636 75.2C306.729 74.6667 305.756 74.4 304.716 74.4C303.676 74.4 302.716 74.6533 301.836 75.16C300.956 75.6667 300.236 76.4133 299.676 77.4C299.143 78.36 298.876 79.5067 298.876 80.84C298.876 82.1733 299.143 83.3467 299.676 84.36C300.236 85.3467 300.956 86.1067 301.836 86.64C302.743 87.1733 303.703 87.44 304.716 87.44C305.756 87.44 306.729 87.1867 307.636 86.68C308.543 86.1467 309.263 85.4 309.796 84.44C310.329 83.4533 310.596 82.28 310.596 80.92ZM351.225 69.52C353.945 69.52 356.132 70.36 357.785 72.04C359.465 73.6933 360.305 76.0133 360.305 79V92H354.705V79.76C354.705 78.0267 354.265 76.7067 353.385 75.8C352.505 74.8667 351.305 74.4 349.785 74.4C348.265 74.4 347.052 74.8667 346.145 75.8C345.265 76.7067 344.825 78.0267 344.825 79.76V92H339.225V79.76C339.225 78.0267 338.785 76.7067 337.905 75.8C337.025 74.8667 335.825 74.4 334.305 74.4C332.759 74.4 331.532 74.8667 330.625 75.8C329.745 76.7067 329.305 78.0267 329.305 79.76V92H323.705V69.84H329.305V72.52C330.025 71.5867 330.945 70.8533 332.065 70.32C333.212 69.7867 334.465 69.52 335.825 69.52C337.559 69.52 339.105 69.8933 340.465 70.64C341.825 71.36 342.879 72.4 343.625 73.76C344.345 72.48 345.385 71.4533 346.745 70.68C348.132 69.9067 349.625 69.52 351.225 69.52ZM395.139 69.52C397.859 69.52 400.046 70.36 401.699 72.04C403.379 73.6933 404.219 76.0133 404.219 79V92H398.619V79.76C398.619 78.0267 398.179 76.7067 397.299 75.8C396.419 74.8667 395.219 74.4 393.699 74.4C392.179 74.4 390.966 74.8667 390.059 75.8C389.179 76.7067 388.739 78.0267 388.739 79.76V92H383.139V79.76C383.139 78.0267 382.699 76.7067 381.819 75.8C380.939 74.8667 379.739 74.4 378.219 74.4C376.673 74.4 375.446 74.8667 374.539 75.8C373.659 76.7067 373.219 78.0267 373.219 79.76V92H367.619V69.84H373.219V72.52C373.939 71.5867 374.859 70.8533 375.979 70.32C377.126 69.7867 378.379 69.52 379.739 69.52C381.473 69.52 383.019 69.8933 384.379 70.64C385.739 71.36 386.793 72.4 387.539 73.76C388.259 72.48 389.299 71.4533 390.659 70.68C392.046 69.9067 393.539 69.52 395.139 69.52ZM414.373 67.2C413.387 67.2 412.56 66.8933 411.893 66.28C411.253 65.64 410.933 64.8533 410.933 63.92C410.933 62.9867 411.253 62.2133 411.893 61.6C412.56 60.96 413.387 60.64 414.373 60.64C415.36 60.64 416.173 60.96 416.813 61.6C417.48 62.2133 417.813 62.9867 417.813 63.92C417.813 64.8533 417.48 65.64 416.813 66.28C416.173 66.8933 415.36 67.2 414.373 67.2ZM417.133 69.84V92H411.533V69.84H417.133ZM436.946 69.52C439.586 69.52 441.72 70.36 443.346 72.04C444.973 73.6933 445.786 76.0133 445.786 79V92H440.186V79.76C440.186 78 439.746 76.6533 438.866 75.72C437.986 74.76 436.786 74.28 435.266 74.28C433.72 74.28 432.493 74.76 431.586 75.72C430.706 76.6533 430.266 78 430.266 79.76V92H424.666V69.84H430.266V72.6C431.013 71.64 431.96 70.8933 433.106 70.36C434.28 69.8 435.56 69.52 436.946 69.52ZM461.792 69.48C463.445 69.48 464.898 69.8133 466.152 70.48C467.405 71.12 468.392 71.96 469.112 73V69.84H474.752V92.16C474.752 94.2133 474.338 96.04 473.512 97.64C472.685 99.2667 471.445 100.547 469.792 101.48C468.138 102.44 466.138 102.92 463.792 102.92C460.645 102.92 458.058 102.187 456.032 100.72C454.032 99.2533 452.898 97.2533 452.632 94.72H458.192C458.485 95.7333 459.112 96.5333 460.072 97.12C461.058 97.7333 462.245 98.04 463.632 98.04C465.258 98.04 466.578 97.5467 467.592 96.56C468.605 95.6 469.112 94.1333 469.112 92.16V88.72C468.392 89.76 467.392 90.6267 466.112 91.32C464.858 92.0133 463.418 92.36 461.792 92.36C459.925 92.36 458.218 91.88 456.672 90.92C455.125 89.96 453.898 88.6133 452.992 86.88C452.112 85.12 451.672 83.1067 451.672 80.84C451.672 78.6 452.112 76.6133 452.992 74.88C453.898 73.1467 455.112 71.8133 456.632 70.88C458.178 69.9467 459.898 69.48 461.792 69.48ZM469.112 80.92C469.112 79.56 468.845 78.4 468.312 77.44C467.778 76.4533 467.058 75.7067 466.152 75.2C465.245 74.6667 464.272 74.4 463.232 74.4C462.192 74.4 461.232 74.6533 460.352 75.16C459.472 75.6667 458.752 76.4133 458.192 77.4C457.658 78.36 457.392 79.5067 457.392 80.84C457.392 82.1733 457.658 83.3467 458.192 84.36C458.752 85.3467 459.472 86.1067 460.352 86.64C461.258 87.1733 462.218 87.44 463.232 87.44C464.272 87.44 465.245 87.1867 466.152 86.68C467.058 86.1467 467.778 85.4 468.312 84.44C468.845 83.4533 469.112 82.28 469.112 80.92ZM224.173 160.56H233.373V165H218.573V137.08H224.173V160.56ZM237.492 153.84C237.492 151.6 237.932 149.613 238.812 147.88C239.719 146.147 240.932 144.813 242.452 143.88C243.999 142.947 245.719 142.48 247.612 142.48C249.265 142.48 250.705 142.813 251.932 143.48C253.185 144.147 254.185 144.987 254.932 146V142.84H260.572V165H254.932V161.76C254.212 162.8 253.212 163.667 251.932 164.36C250.679 165.027 249.225 165.36 247.572 165.36C245.705 165.36 243.999 164.88 242.452 163.92C240.932 162.96 239.719 161.613 238.812 159.88C237.932 158.12 237.492 156.107 237.492 153.84ZM254.932 153.92C254.932 152.56 254.665 151.4 254.132 150.44C253.599 149.453 252.879 148.707 251.972 148.2C251.065 147.667 250.092 147.4 249.052 147.4C248.012 147.4 247.052 147.653 246.172 148.16C245.292 148.667 244.572 149.413 244.012 150.4C243.479 151.36 243.212 152.507 243.212 153.84C243.212 155.173 243.479 156.347 244.012 157.36C244.572 158.347 245.292 159.107 246.172 159.64C247.079 160.173 248.039 160.44 249.052 160.44C250.092 160.44 251.065 160.187 251.972 159.68C252.879 159.147 253.599 158.4 254.132 157.44C254.665 156.453 254.932 155.28 254.932 153.92ZM280.321 142.52C282.961 142.52 285.095 143.36 286.721 145.04C288.348 146.693 289.161 149.013 289.161 152V165H283.561V152.76C283.561 151 283.121 149.653 282.241 148.72C281.361 147.76 280.161 147.28 278.641 147.28C277.095 147.28 275.868 147.76 274.961 148.72C274.081 149.653 273.641 151 273.641 152.76V165H268.041V142.84H273.641V145.6C274.388 144.64 275.335 143.893 276.481 143.36C277.655 142.8 278.935 142.52 280.321 142.52ZM305.167 142.48C306.82 142.48 308.273 142.813 309.527 143.48C310.78 144.12 311.767 144.96 312.487 146V142.84H318.127V165.16C318.127 167.213 317.713 169.04 316.887 170.64C316.06 172.267 314.82 173.547 313.167 174.48C311.513 175.44 309.513 175.92 307.167 175.92C304.02 175.92 301.433 175.187 299.407 173.72C297.407 172.253 296.273 170.253 296.007 167.72H301.567C301.86 168.733 302.487 169.533 303.447 170.12C304.433 170.733 305.62 171.04 307.007 171.04C308.633 171.04 309.953 170.547 310.967 169.56C311.98 168.6 312.487 167.133 312.487 165.16V161.72C311.767 162.76 310.767 163.627 309.487 164.32C308.233 165.013 306.793 165.36 305.167 165.36C303.3 165.36 301.593 164.88 300.047 163.92C298.5 162.96 297.273 161.613 296.367 159.88C295.487 158.12 295.047 156.107 295.047 153.84C295.047 151.6 295.487 149.613 296.367 147.88C297.273 146.147 298.487 144.813 300.007 143.88C301.553 142.947 303.273 142.48 305.167 142.48ZM312.487 153.92C312.487 152.56 312.22 151.4 311.687 150.44C311.153 149.453 310.433 148.707 309.527 148.2C308.62 147.667 307.647 147.4 306.607 147.4C305.567 147.4 304.607 147.653 303.727 148.16C302.847 148.667 302.127 149.413 301.567 150.4C301.033 151.36 300.767 152.507 300.767 153.84C300.767 155.173 301.033 156.347 301.567 157.36C302.127 158.347 302.847 159.107 303.727 159.64C304.633 160.173 305.593 160.44 306.607 160.44C307.647 160.44 308.62 160.187 309.527 159.68C310.433 159.147 311.153 158.4 311.687 157.44C312.22 156.453 312.487 155.28 312.487 153.92ZM346.516 142.84V165H340.876V162.2C340.156 163.16 339.209 163.92 338.036 164.48C336.889 165.013 335.636 165.28 334.276 165.28C332.543 165.28 331.009 164.92 329.676 164.2C328.343 163.453 327.289 162.373 326.516 160.96C325.769 159.52 325.396 157.813 325.396 155.84V142.84H330.996V155.04C330.996 156.8 331.436 158.16 332.316 159.12C333.196 160.053 334.396 160.52 335.916 160.52C337.463 160.52 338.676 160.053 339.556 159.12C340.436 158.16 340.876 156.8 340.876 155.04V142.84H346.516ZM352.601 153.84C352.601 151.6 353.041 149.613 353.921 147.88C354.828 146.147 356.041 144.813 357.561 143.88C359.108 142.947 360.828 142.48 362.721 142.48C364.375 142.48 365.815 142.813 367.041 143.48C368.295 144.147 369.295 144.987 370.041 146V142.84H375.681V165H370.041V161.76C369.321 162.8 368.321 163.667 367.041 164.36C365.788 165.027 364.335 165.36 362.681 165.36C360.815 165.36 359.108 164.88 357.561 163.92C356.041 162.96 354.828 161.613 353.921 159.88C353.041 158.12 352.601 156.107 352.601 153.84ZM370.041 153.92C370.041 152.56 369.775 151.4 369.241 150.44C368.708 149.453 367.988 148.707 367.081 148.2C366.175 147.667 365.201 147.4 364.161 147.4C363.121 147.4 362.161 147.653 361.281 148.16C360.401 148.667 359.681 149.413 359.121 150.4C358.588 151.36 358.321 152.507 358.321 153.84C358.321 155.173 358.588 156.347 359.121 157.36C359.681 158.347 360.401 159.107 361.281 159.64C362.188 160.173 363.148 160.44 364.161 160.44C365.201 160.44 366.175 160.187 367.081 159.68C367.988 159.147 368.708 158.4 369.241 157.44C369.775 156.453 370.041 155.28 370.041 153.92ZM391.831 142.48C393.484 142.48 394.937 142.813 396.191 143.48C397.444 144.12 398.431 144.96 399.151 146V142.84H404.791V165.16C404.791 167.213 404.377 169.04 403.551 170.64C402.724 172.267 401.484 173.547 399.831 174.48C398.177 175.44 396.177 175.92 393.831 175.92C390.684 175.92 388.097 175.187 386.071 173.72C384.071 172.253 382.937 170.253 382.671 167.72H388.231C388.524 168.733 389.151 169.533 390.111 170.12C391.097 170.733 392.284 171.04 393.671 171.04C395.297 171.04 396.617 170.547 397.631 169.56C398.644 168.6 399.151 167.133 399.151 165.16V161.72C398.431 162.76 397.431 163.627 396.151 164.32C394.897 165.013 393.457 165.36 391.831 165.36C389.964 165.36 388.257 164.88 386.711 163.92C385.164 162.96 383.937 161.613 383.031 159.88C382.151 158.12 381.711 156.107 381.711 153.84C381.711 151.6 382.151 149.613 383.031 147.88C383.937 146.147 385.151 144.813 386.671 143.88C388.217 142.947 389.937 142.48 391.831 142.48ZM399.151 153.92C399.151 152.56 398.884 151.4 398.351 150.44C397.817 149.453 397.097 148.707 396.191 148.2C395.284 147.667 394.311 147.4 393.271 147.4C392.231 147.4 391.271 147.653 390.391 148.16C389.511 148.667 388.791 149.413 388.231 150.4C387.697 151.36 387.431 152.507 387.431 153.84C387.431 155.173 387.697 156.347 388.231 157.36C388.791 158.347 389.511 159.107 390.391 159.64C391.297 160.173 392.257 160.44 393.271 160.44C394.311 160.44 395.284 160.187 396.191 159.68C397.097 159.147 397.817 158.4 398.351 157.44C398.884 156.453 399.151 155.28 399.151 153.92ZM432.86 153.44C432.86 154.24 432.807 154.96 432.7 155.6H416.5C416.633 157.2 417.193 158.453 418.18 159.36C419.167 160.267 420.38 160.72 421.82 160.72C423.9 160.72 425.38 159.827 426.26 158.04H432.3C431.66 160.173 430.433 161.933 428.62 163.32C426.807 164.68 424.58 165.36 421.94 165.36C419.807 165.36 417.887 164.893 416.18 163.96C414.5 163 413.18 161.653 412.22 159.92C411.287 158.187 410.82 156.187 410.82 153.92C410.82 151.627 411.287 149.613 412.22 147.88C413.153 146.147 414.46 144.813 416.14 143.88C417.82 142.947 419.753 142.48 421.94 142.48C424.047 142.48 425.927 142.933 427.58 143.84C429.26 144.747 430.553 146.04 431.46 147.72C432.393 149.373 432.86 151.28 432.86 153.44ZM427.06 151.84C427.033 150.4 426.513 149.253 425.5 148.4C424.487 147.52 423.247 147.08 421.78 147.08C420.393 147.08 419.22 147.507 418.26 148.36C417.327 149.187 416.753 150.347 416.54 151.84H427.06Z" fill="#143649"/>
    <path d="M226.698 309.159L218.844 221.057H305.156L297.294 309.146L261.948 318.945L226.698 309.159Z" fill="#1572B6"/>
    <path d="M262 311.455L290.562 303.536L297.281 228.26H262V311.455Z" fill="#33A9DC"/>
    <path d="M262 260.179H276.298L277.286 249.114H262V238.309H289.095L288.836 241.208L286.18 270.984H262V260.179Z" fill="white"/>
    <path d="M262.065 288.242L262.018 288.256L249.984 285.007L249.214 276.389H238.369L239.882 293.355L262.016 299.498L262.065 299.484V288.242Z" fill="#EBEBEB"/>
    <path d="M275.38 270.527L274.079 284.998L262.027 288.251V299.493L284.179 293.354L284.341 291.528L286.221 270.527H275.38Z" fill="white"/>
    <path d="M262.038 238.309V249.114H235.938L235.721 246.686L235.229 241.208L234.971 238.309H262.038ZM262.001 260.18V270.986H250.119L249.903 268.558L249.41 263.08L249.152 260.18H262.001Z" fill="#EBEBEB"/>
    <path d="M501.1 476.1H598.9V573.9H501.1V476.1Z" fill="#F0DB4F"/>
    <path d="M590.896 550.574C590.18 546.113 587.27 542.365 578.652 538.87C575.659 537.495 572.321 536.509 571.327 534.241C570.973 532.92 570.927 532.177 571.15 531.377C571.791 528.784 574.888 527.975 577.341 528.719C578.922 529.249 580.418 530.467 581.32 532.409C585.541 529.677 585.532 529.695 588.479 527.817C587.4 526.144 586.824 525.372 586.118 524.656C583.58 521.821 580.121 520.361 574.59 520.473L571.709 520.845C568.948 521.543 566.316 522.992 564.773 524.935C560.144 530.188 561.464 539.382 567.098 543.166C572.648 547.331 580.801 548.279 581.842 552.174C582.855 556.943 578.338 558.487 573.847 557.938C570.538 557.25 568.697 555.568 566.707 552.509C563.045 554.629 563.045 554.629 559.279 556.795C560.172 558.747 561.11 559.631 562.607 561.322C569.691 568.508 587.42 568.155 590.599 557.278C590.728 556.905 591.584 554.414 590.896 550.574ZM554.267 521.049H545.12L545.082 544.699C545.082 549.728 545.342 554.339 544.524 555.752C543.186 558.532 539.718 558.188 538.138 557.649C536.529 556.858 535.711 555.734 534.763 554.145C534.503 553.688 534.308 553.335 534.242 553.308L526.805 557.863C528.041 560.401 529.863 562.604 532.197 564.035C535.683 566.127 540.368 566.769 545.268 565.644C548.457 564.715 551.209 562.791 552.649 559.862C554.732 556.022 554.285 551.374 554.266 546.234C554.313 537.847 554.267 529.462 554.267 521.049Z" fill="#323330"/>
    <path d="M101.711 222.719H179.578V280.273H101.711V222.719Z" fill="white"/>
    <path d="M85.1719 235.93V284.758H182.828V187.102H85.1719V235.93ZM163.867 232.023C166.206 232.566 168.332 233.79 169.977 235.539C170.882 236.482 171.669 237.531 172.32 238.664C172.32 238.789 168.102 241.641 165.531 243.234C165.438 243.297 165.062 242.891 164.648 242.273C164.179 241.464 163.513 240.786 162.711 240.304C161.909 239.822 160.998 239.551 160.062 239.516C157.102 239.312 155.195 240.867 155.211 243.422C155.186 244.058 155.332 244.689 155.633 245.25C156.281 246.602 157.492 247.406 161.289 249.047C168.281 252.055 171.273 254.039 173.133 256.859C175.211 259.984 175.672 265.031 174.266 268.766C172.703 272.828 168.875 275.586 163.461 276.5C160.988 276.783 158.49 276.757 156.023 276.422C152.243 275.799 148.762 273.984 146.086 271.242C145.188 270.25 143.438 267.664 143.547 267.477C143.832 267.265 144.132 267.074 144.445 266.906L148.062 264.906L150.867 263.281L151.453 264.148C152.442 265.563 153.7 266.768 155.156 267.695C158.281 269.336 162.547 269.109 164.656 267.211C165.364 266.515 165.806 265.593 165.905 264.605C166.003 263.618 165.752 262.626 165.195 261.805C164.414 260.719 162.852 259.805 158.484 257.898C153.445 255.727 151.273 254.383 149.289 252.242C148.05 250.83 147.136 249.163 146.609 247.359C146.217 245.299 146.159 243.188 146.438 241.109C147.477 236.242 151.125 232.844 156.453 231.836C158.921 231.531 161.42 231.599 163.867 232.039V232.023ZM140.945 236.117V240.117H128.266V276.234H119.273V240.109H106.562V236.203C106.523 234.856 106.554 233.508 106.656 232.164C106.719 232.094 114.469 232.094 123.844 232.094H140.898L140.945 236.117Z" fill="#007ACC"/>
    <path d="M98.873 563.965L91.0566 476.297H176.944L169.119 563.952L133.948 573.702L98.873 563.965Z" fill="#E44D26"/>
    <path d="M134 566.249L162.42 558.37L169.107 483.465H134V566.249Z" fill="#F16529"/>
    <path d="M134.001 515.981H119.773L118.79 504.97H134.001V494.219H107.039L107.297 497.103L109.939 526.734H134.001V515.981ZM134.001 543.905L133.953 543.919L121.979 540.684L121.214 532.11H110.42L111.926 548.992L133.952 555.106L134.001 555.093V543.905Z" fill="#EBEBEB"/>
    <path d="M133.963 515.981V526.734H147.203L145.955 540.678L133.963 543.915V555.102L156.006 548.992L156.168 547.176L158.694 518.869L158.956 515.981H156.059H133.963ZM133.963 494.219V504.97H159.935L160.15 502.555L160.641 497.103L160.898 494.219H133.963Z" fill="white"/>
    <path d="M259.617 545.12C259.617 545.12 254.85 547.894 263.014 548.83C272.906 549.96 277.961 549.798 288.859 547.738C288.859 547.738 291.73 549.533 295.732 551.089C271.293 561.559 240.424 550.482 259.617 545.12ZM256.629 531.455C256.629 531.455 251.281 535.414 259.452 536.26C270.019 537.351 278.362 537.44 292.806 534.66C292.806 534.66 294.799 536.685 297.938 537.791C268.396 546.431 235.492 538.471 256.629 531.455Z" fill="#0074BD"/>
    <path d="M281.803 508.271C287.828 515.206 280.223 521.441 280.223 521.441C280.223 521.441 295.512 513.55 288.492 503.664C281.933 494.449 276.905 489.872 304.127 474.084C304.127 474.085 261.396 484.754 281.803 508.271Z" fill="#EA2D2E"/>
    <path d="M314.122 555.229C314.122 555.229 317.651 558.139 310.234 560.388C296.132 564.66 251.528 565.948 239.14 560.559C234.689 558.621 243.039 555.934 245.666 555.367C248.405 554.774 249.969 554.882 249.969 554.882C245.016 551.395 217.956 561.732 236.226 564.697C286.047 572.773 327.043 561.06 314.122 555.229ZM261.911 517.294C261.911 517.294 239.225 522.683 253.878 524.642C260.066 525.47 272.396 525.28 283.889 524.316C293.279 523.527 302.702 521.842 302.702 521.842C302.702 521.842 299.394 523.261 296.998 524.895C273.956 530.956 229.454 528.133 242.267 521.937C253.099 516.698 261.911 517.294 261.911 517.294ZM302.608 540.041C326.029 527.874 315.199 516.181 307.64 517.756C305.792 518.141 304.963 518.476 304.963 518.476C304.963 518.476 305.651 517.397 306.963 516.933C321.916 511.678 333.414 532.436 302.14 540.658C302.14 540.656 302.499 540.331 302.608 540.041Z" fill="#0074BD"/>
    <path d="M288.49 448.588C288.49 448.588 301.458 461.564 276.187 481.511C255.921 497.517 271.566 506.641 276.18 517.07C264.349 506.397 255.671 497 261.492 488.255C270.04 475.421 293.721 469.196 288.49 448.588Z" fill="#EA2D2E"/>
    <path d="M264.213 573.022C286.689 574.459 321.213 572.222 322.03 561.586C322.03 561.586 320.459 565.618 303.453 568.817C284.267 572.429 260.599 572.008 246.566 569.691C246.566 569.692 249.441 572.072 264.213 573.022Z" fill="#0074BD"/>
    <path d="M169.156 342.984L131.422 321.266C130.797 320.875 129.938 320.719 129 320.719C128.062 320.719 127.203 320.953 126.578 321.266L89.0781 343.062C87.75 343.844 86.8125 345.797 86.8125 347.281V390.797C86.8125 391.656 86.9687 392.672 87.5938 393.531L171.031 345.094C170.562 344.156 169.859 343.453 169.156 342.984Z" fill="#659AD3"/>
    <path d="M87.3594 393.453C87.75 394.078 88.2969 394.625 88.8438 394.938L126.5 416.734C127.125 417.125 127.984 417.281 128.922 417.281C129.859 417.281 130.719 417.047 131.344 416.734L168.844 394.938C170.172 394.156 171.109 392.203 171.109 390.719V347.203C171.109 346.5 171.031 345.719 170.641 345.016L87.3594 393.453Z" fill="#03599C"/>
    <path d="M145.641 378.453C142.359 384.234 136.109 388.141 129 388.141C118.453 388.141 109.859 379.547 109.859 369C109.859 358.453 118.453 349.859 129 349.859C136.109 349.859 142.359 353.766 145.641 359.625L155.797 353.766C150.484 344.469 140.484 338.141 129 338.141C111.969 338.141 98.1406 351.969 98.1406 369C98.1406 386.031 111.969 399.859 129 399.859C140.406 399.859 150.406 393.609 155.719 384.391L145.641 378.453Z" fill="white"/>
    <path d="M631.156 384.984L593.422 363.266C592.797 362.875 591.938 362.719 591 362.719C590.062 362.719 589.203 362.953 588.578 363.266L551.078 385.062C549.75 385.844 548.812 387.797 548.812 389.281V432.797C548.812 433.656 548.969 434.672 549.594 435.531L633.031 387.094C632.562 386.156 631.859 385.453 631.156 384.984Z" fill="#D26383"/>
    <path d="M549.359 435.453C549.75 436.078 550.297 436.625 550.844 436.938L588.5 458.734C589.125 459.125 589.984 459.281 590.922 459.281C591.859 459.281 592.719 459.047 593.344 458.734L630.844 436.938C632.172 436.156 633.109 434.203 633.109 432.719V389.203C633.109 388.5 633.031 387.719 632.641 387.016L549.359 435.453Z" fill="#9C033A"/>
    <path d="M607.641 420.453C604.359 426.234 598.109 430.141 591 430.141C580.453 430.141 571.859 421.547 571.859 411C571.859 400.453 580.453 391.859 591 391.859C598.109 391.859 604.359 395.766 607.641 401.625L617.797 395.766C612.484 386.469 602.484 380.141 591 380.141C573.969 380.141 560.141 393.969 560.141 411C560.141 428.031 573.969 441.859 591 441.859C602.406 441.859 612.406 435.609 617.719 426.391L607.641 420.453Z" fill="white"/>
    <path d="M605.141 409.281H609.203V405.141H612.641V409.281H616.781V412.719H612.641V416.781H609.203V412.719H605.141V409.281ZM619.594 409.281H623.656V405.141H627.094V409.281H631.234V412.719H627.094V416.781H623.656V412.719H619.594V409.281Z" fill="white"/>
    <path d="M352.156 370.984L314.422 349.266C313.797 348.875 312.938 348.719 312 348.719C311.062 348.719 310.203 348.953 309.578 349.266L272.078 371.062C270.75 371.844 269.812 373.797 269.812 375.281V418.797C269.812 419.656 269.969 420.672 270.594 421.531L354.031 373.094C353.562 372.156 352.859 371.453 352.156 370.984Z" fill="#9B4F96"/>
    <path d="M270.359 421.453C270.75 422.078 271.297 422.625 271.844 422.938L309.5 444.734C310.125 445.125 310.984 445.281 311.922 445.281C312.859 445.281 313.719 445.047 314.344 444.734L351.844 422.938C353.172 422.156 354.109 420.203 354.109 418.719V375.203C354.109 374.5 354.031 373.719 353.641 373.016L270.359 421.453Z" fill="#68217A"/>
    <path d="M328.641 406.453C325.359 412.234 319.109 416.141 312 416.141C301.453 416.141 292.859 407.547 292.859 397C292.859 386.453 301.453 377.859 312 377.859C319.109 377.859 325.359 381.766 328.641 387.625L338.797 381.766C333.484 372.469 323.484 366.141 312 366.141C294.969 366.141 281.141 379.969 281.141 397C281.141 414.031 294.969 427.859 312 427.859C323.406 427.859 333.406 421.609 338.719 412.391L328.641 406.453ZM337.781 398.719L338.484 395.359H335.203V391.688H339.188L340.125 386.844H343.953L343.016 391.609H345.984L346.922 386.844H350.672L349.734 391.609H351.609V395.281H349.031L348.328 398.641H351.609V402.313H347.625L346.688 407H342.859L343.797 402.313H340.828L339.891 407H336.141L337.078 402.313H335.203V398.641H337.781V398.719ZM341.531 398.719H344.5L345.203 395.359H342.234L341.531 398.719Z" fill="white"/>
    <defs>
        <radialGradient id="paint0_radial_1496_472" cx="0" cy="0" r="1" gradientUnits="userSpaceOnUse" gradientTransform="translate(347.824 350) rotate(90) scale(350 347.824)">
            <stop stop-color="#C9DDE9" stop-opacity="0.6"/>
            <stop offset="1" stop-color="#C9DDE9" stop-opacity="0.8"/>
        </radialGradient>
        <linearGradient id="paint1_linear_1496_472" x1="423.337" y1="281.191" x2="480.291" y2="329.761" gradientUnits="userSpaceOnUse">
            <stop stop-color="#5A9FD4"/>
            <stop offset="1" stop-color="#306998"/>
        </linearGradient>
        <linearGradient id="paint2_linear_1496_472" x1="501.718" y1="359.952" x2="481.293" y2="331.31" gradientUnits="userSpaceOnUse">
            <stop stop-color="#FFD43B"/>
            <stop offset="1" stop-color="#FFE873"/>
        </linearGradient>
        <radialGradient id="paint3_radial_1496_472" cx="0" cy="0" r="1" gradientUnits="userSpaceOnUse" gradientTransform="translate(477.085 385.413) rotate(-90) scale(6.41832 28.2139)">
            <stop stop-color="#B8B8B8" stop-opacity="0.498"/>
            <stop offset="1" stop-color="#7F7F7F" stop-opacity="0"/>
        </radialGradient>
    </defs>
</svg>
